<svg xmlns="http://www.w3.org/2000/svg" viewBox="0 0 1800 1200" preserveAspectRatio="xMidYMid slice"><rect width="1800" height="1200" fill="#161513"/>
  <defs>
    <linearGradient id="sky" x1="0" y1="0" x2="0" y2="1">
      <stop offset="0" stop-color="#161513"/><stop offset="1" stop-color="#4A4E55"/>
    </linearGradient>
    <linearGradient id="skycliff" x1="0" y1="0" x2="0" y2="1">
      <stop offset="0" stop-color="#18171B"/><stop offset="0.52" stop-color="#5C6674"/><stop offset="0.78" stop-color="#C79F63"/><stop offset="1" stop-color="#EDD9B4"/>
    </linearGradient>
    <linearGradient id="skyfold" x1="0" y1="0" x2="0" y2="1">
      <stop offset="0" stop-color="#2A2E3A"/><stop offset="0.55" stop-color="#88604B"/><stop offset="0.8" stop-color="#D08950"/><stop offset="1" stop-color="#EFC98C"/>
    </linearGradient>
    <linearGradient id="skygold" x1="0" y1="0" x2="0" y2="1">
      <stop offset="0" stop-color="#1B1A18"/><stop offset="0.5" stop-color="#4E4B41"/><stop offset="0.75" stop-color="#C2A472"/><stop offset="1" stop-color="#E9D9B8"/>
    </linearGradient>
    <linearGradient id="skyday" x1="0" y1="0" x2="0" y2="1">
      <stop offset="0" stop-color="#23241F"/><stop offset="0.55" stop-color="#6E7366"/><stop offset="1" stop-color="#C9C7B4"/>
    </linearGradient>
    <linearGradient id="sear" x1="0" y1="0" x2="0" y2="1">
      <stop offset="0" stop-color="#39464B"/><stop offset="1" stop-color="#171C1F"/>
    </linearGradient>
    <linearGradient id="sead" x1="0" y1="0" x2="0" y2="1">
      <stop offset="0" stop-color="#4A5D60"/><stop offset="1" stop-color="#1E272A"/>
    </linearGradient>
    <linearGradient id="glassy" x1="0" y1="0" x2="1" y2="0.25">
      <stop offset="0" stop-color="#20242A"/><stop offset="0.5" stop-color="#A7B6B8"/><stop offset="1" stop-color="#1C2026"/>
    </linearGradient>
    <linearGradient id="glasslit" x1="0" y1="0" x2="0" y2="1">
      <stop offset="0" stop-color="#E7C37C"/><stop offset="1" stop-color="#9A6B33"/>
    </linearGradient>
    <linearGradient id="floorin" x1="0" y1="0" x2="0" y2="1">
      <stop offset="0" stop-color="#8C7A5E"/><stop offset="1" stop-color="#3F3A30"/>
    </linearGradient>
    <radialGradient id="vig" cx="0.5" cy="0.42" r="0.85">
      <stop offset="0.55" stop-color="#000000" stop-opacity="0"/>
      <stop offset="1" stop-color="#000000" stop-opacity="0.55"/>
    </radialGradient>
    <radialGradient id="glow" cx="0.5" cy="0.5" r="0.5">
      <stop offset="0" stop-color="#F5D9A0" stop-opacity="0.55"/>
      <stop offset="1" stop-color="#F5D9A0" stop-opacity="0"/>
    </radialGradient>
    <radialGradient id="sung" cx="0.5" cy="0.5" r="0.5">
      <stop offset="0" stop-color="#FFEBC4" stop-opacity="0.9"/>
      <stop offset="1" stop-color="#FFEBC4" stop-opacity="0"/>
    </radialGradient>
    <linearGradient id="copvert" x1="0" y1="0" x2="1" y2="0">
      <stop offset="0" stop-color="#5E3517"/><stop offset="0.5" stop-color="#A5602E"/><stop offset="1" stop-color="#4A2A12"/>
    </linearGradient>
    <linearGradient id="citysky" x1="0" y1="0" x2="0" y2="1">
      <stop offset="0" stop-color="#20242A"/><stop offset="1" stop-color="#8A8E90"/>
    </linearGradient>
    <linearGradient id="poolw" x1="0" y1="0" x2="0" y2="1">
      <stop offset="0" stop-color="#B98A4E"/><stop offset="1" stop-color="#5E4526"/>
    </linearGradient>
  </defs><rect width="1800" height="1200" fill="#201D18"/><rect x="0" y="900" width="1800" height="300" fill="url(#floorin)"/><rect x="200" y="120" width="1400" height="780" fill="url(#citysky)"/><rect x="200" y="620" width="1400" height="280" fill="#33302A"/><g stroke="#14121B" stroke-width="5" opacity="1"><line x1="433.33" y1="120" x2="433.33" y2="900"/><line x1="666.67" y1="120" x2="666.67" y2="900"/><line x1="900" y1="120" x2="900" y2="900"/><line x1="1133.33" y1="120" x2="1133.33" y2="900"/><line x1="1366.67" y1="120" x2="1366.67" y2="900"/></g><rect x="0" y="0" width="200" height="1200" fill="#191612"/><rect x="1600" y="0" width="200" height="1200" fill="#171411"/><rect x="1600" y="0" width="200" height="1200" fill="#000" opacity="0.3"/><rect x="240" y="700" width="1320" height="26" fill="#5C6248"/><rect x="240" y="726" width="1320" height="120" fill="#4A4F3A"/><rect x="240" y="726" width="1320" height="120" fill="#000" opacity="0.25"/><rect x="420" y="560" width="300" height="140" fill="#111214"/><rect x="430" y="570" width="280" height="120" fill="#232623"/><line x1="450" y1="630" x2="690" y2="630" stroke="#4E5346" stroke-width="2"/><rect x="840" y="560" width="300" height="140" fill="#111214"/><rect x="850" y="570" width="280" height="120" fill="#20231F"/><rect x="1240" y="380" width="260" height="180" fill="#C9BD9F" opacity="0.85"/><rect x="1240" y="380" width="260" height="180" fill="none" stroke="#57503F" stroke-width="3"/><line x1="1260" y1="470" x2="1480" y2="470" stroke="#57503F" stroke-width="2" opacity="0.6"/><path d="M1698.08 436.55h1.4v1.4h-1.4zM402.51 409.06h1.4v1.4h-1.4zM438.94 591.54h1.4v1.4h-1.4zM1753.62 1172.43h1.4v1.4h-1.4zM1464.27 250.77h1.4v1.4h-1.4zM342.26 913.9h1.4v1.4h-1.4zM1667.06 835.26h1.4v1.4h-1.4zM936.44 867.66h1.4v1.4h-1.4zM619 842.58h1.4v1.4h-1.4zM45.48 836.61h1.4v1.4h-1.4zM802.73 324.96h1.4v1.4h-1.4zM681.14 1191.02h1.4v1.4h-1.4zM406.82 699.12h1.4v1.4h-1.4zM1241.72 300.32h1.4v1.4h-1.4zM481.88 502.55h1.4v1.4h-1.4zM1019.33 880.94h1.4v1.4h-1.4zM465.93 592.05h1.4v1.4h-1.4zM252.21 1075.93h1.4v1.4h-1.4zM604.3 576.37h1.4v1.4h-1.4zM1083.76 390.36h1.4v1.4h-1.4zM550.91 1179.44h1.4v1.4h-1.4zM116.1 97.71h1.4v1.4h-1.4zM954.99 1162h1.4v1.4h-1.4zM1283.27 196.3h1.4v1.4h-1.4zM527.83 570.87h1.4v1.4h-1.4zM814.54 606.84h1.4v1.4h-1.4zM503.55 963.8h1.4v1.4h-1.4zM1386.83 183.74h1.4v1.4h-1.4zM728.54 703.7h1.4v1.4h-1.4zM1609.94 493.65h1.4v1.4h-1.4zM1721.85 327.23h1.4v1.4h-1.4zM113.84 1095.86h1.4v1.4h-1.4zM828.66 409h1.4v1.4h-1.4zM720.47 199.56h1.4v1.4h-1.4zM57.89 645.54h1.4v1.4h-1.4zM658.31 980.68h1.4v1.4h-1.4zM536.41 735.14h1.4v1.4h-1.4zM442.54 100.19h1.4v1.4h-1.4zM386.66 422.07h1.4v1.4h-1.4zM756.35 250.71h1.4v1.4h-1.4zM808.36 1011.64h1.4v1.4h-1.4zM1665 589.21h1.4v1.4h-1.4zM699.9 161.49h1.4v1.4h-1.4zM1494.56 46.44h1.4v1.4h-1.4zM875.68 517.13h1.4v1.4h-1.4zM1412.55 351.34h1.4v1.4h-1.4zM1372.83 555.7h1.4v1.4h-1.4zM187.51 1032.47h1.4v1.4h-1.4zM1022.61 398.53h1.4v1.4h-1.4zM1421.98 393.41h1.4v1.4h-1.4zM129.3 343.56h1.4v1.4h-1.4zM1489.44 303.6h1.4v1.4h-1.4zM244.35 709.74h1.4v1.4h-1.4zM821 1026.63h1.4v1.4h-1.4zM1567.78 829.78h1.4v1.4h-1.4zM1363.65 884.5h1.4v1.4h-1.4zM320.2 970.82h1.4v1.4h-1.4zM261.26 544.99h1.4v1.4h-1.4zM116.73 1108.68h1.4v1.4h-1.4zM1685.37 783.61h1.4v1.4h-1.4zM146.81 920.1h1.4v1.4h-1.4zM1321.89 959.06h1.4v1.4h-1.4zM776.11 893.9h1.4v1.4h-1.4zM1454.75 387.04h1.4v1.4h-1.4zM1450.42 1109.53h1.4v1.4h-1.4zM1557.99 342.07h1.4v1.4h-1.4zM1647.79 971.08h1.4v1.4h-1.4zM1327.08 328.26h1.4v1.4h-1.4zM951.87 942.6h1.4v1.4h-1.4zM1520.35 1060.16h1.4v1.4h-1.4zM861.08 69.48h1.4v1.4h-1.4zM289.52 408.62h1.4v1.4h-1.4zM115.55 1095.74h1.4v1.4h-1.4zM1421.74 151.33h1.4v1.4h-1.4zM839.99 156.29h1.4v1.4h-1.4zM1793.53 690.56h1.4v1.4h-1.4zM1585.04 1030.66h1.4v1.4h-1.4zM355.26 183.3h1.4v1.4h-1.4zM470.56 883.84h1.4v1.4h-1.4zM1773.98 87.62h1.4v1.4h-1.4zM446.47 985.75h1.4v1.4h-1.4zM535.78 835.18h1.4v1.4h-1.4zM698.42 339.34h1.4v1.4h-1.4zM1219.55 295.46h1.4v1.4h-1.4zM219.24 108.78h1.4v1.4h-1.4zM987.08 709.29h1.4v1.4h-1.4zM444.02 1087.14h1.4v1.4h-1.4zM655.13 162.56h1.4v1.4h-1.4zM1375.54 885.13h1.4v1.4h-1.4zM47.58 265.82h1.4v1.4h-1.4zM100.89 54.26h1.4v1.4h-1.4zM1620.13 592.46h1.4v1.4h-1.4zM1551.02 210.1h1.4v1.4h-1.4zM1212.8 195.67h1.4v1.4h-1.4zM871.57 79.17h1.4v1.4h-1.4zM1507.11 216.61h1.4v1.4h-1.4zM1536.38 647.18h1.4v1.4h-1.4zM587.38 648.15h1.4v1.4h-1.4zM1621.42 623.82h1.4v1.4h-1.4zM113.54 190.15h1.4v1.4h-1.4zM474.38 428.53h1.4v1.4h-1.4zM1606 747.61h1.4v1.4h-1.4zM1623.46 702.91h1.4v1.4h-1.4zM1525.01 421.35h1.4v1.4h-1.4zM636.7 20.85h1.4v1.4h-1.4zM1788.39 692.52h1.4v1.4h-1.4zM693.11 853.89h1.4v1.4h-1.4zM769.22 436.95h1.4v1.4h-1.4zM1459.29 802.35h1.4v1.4h-1.4zM948.37 129.33h1.4v1.4h-1.4zM688.4 935.9h1.4v1.4h-1.4zM128.07 998.3h1.4v1.4h-1.4zM1777.75 313h1.4v1.4h-1.4zM1390.9 210.19h1.4v1.4h-1.4zM1606.48 115.07h1.4v1.4h-1.4zM1060.87 727.04h1.4v1.4h-1.4zM1473.7 343.26h1.4v1.4h-1.4zM1069.45 809h1.4v1.4h-1.4zM1230.02 1179.83h1.4v1.4h-1.4zM829.42 621.47h1.4v1.4h-1.4zM280.46 831.53h1.4v1.4h-1.4zM460.6 889.82h1.4v1.4h-1.4zM1085.7 452.24h1.4v1.4h-1.4zM6.55 230.57h1.4v1.4h-1.4zM622.23 1093.34h1.4v1.4h-1.4zM373.63 789.48h1.4v1.4h-1.4zM460.03 479.3h1.4v1.4h-1.4zM118.59 382.16h1.4v1.4h-1.4zM776.15 74.76h1.4v1.4h-1.4zM108.21 462.2h1.4v1.4h-1.4zM800.26 281.26h1.4v1.4h-1.4zM571.38 102.45h1.4v1.4h-1.4zM1649.35 379.65h1.4v1.4h-1.4zM608.9 519.96h1.4v1.4h-1.4zM757.71 1107.81h1.4v1.4h-1.4zM1525.39 1095.79h1.4v1.4h-1.4zM738.57 214.65h1.4v1.4h-1.4zM621.7 1194.48h1.4v1.4h-1.4zM1291.41 266.21h1.4v1.4h-1.4zM870.59 1075.08h1.4v1.4h-1.4zM824.09 883.38h1.4v1.4h-1.4zM970.42 33.22h1.4v1.4h-1.4zM461.26 1056.96h1.4v1.4h-1.4zM1043.18 472.07h1.4v1.4h-1.4zM1221.35 1191.35h1.4v1.4h-1.4zM1465.15 482.02h1.4v1.4h-1.4zM235.1 255.97h1.4v1.4h-1.4zM21.77 282.09h1.4v1.4h-1.4zM1740.82 540.85h1.4v1.4h-1.4zM70.72 352.14h1.4v1.4h-1.4zM1729.76 148.09h1.4v1.4h-1.4zM322.18 328.56h1.4v1.4h-1.4zM1394.75 135.88h1.4v1.4h-1.4zM280.25 957.83h1.4v1.4h-1.4zM396.82 245.06h1.4v1.4h-1.4zM582.35 593.07h1.4v1.4h-1.4zM760.59 941.58h1.4v1.4h-1.4zM999.83 731.83h1.4v1.4h-1.4zM1668.33 686.33h1.4v1.4h-1.4zM1063.31 421.27h1.4v1.4h-1.4zM408.73 436.25h1.4v1.4h-1.4zM132.82 166.46h1.4v1.4h-1.4zM620.34 267.54h1.4v1.4h-1.4zM130.63 857.93h1.4v1.4h-1.4zM31.17 21.71h1.4v1.4h-1.4zM183.25 5.42h1.4v1.4h-1.4zM1683.15 1100.61h1.4v1.4h-1.4zM1706.43 373.06h1.4v1.4h-1.4zM12.43 72.88h1.4v1.4h-1.4zM1420.75 1000.82h1.4v1.4h-1.4zM506.79 51.97h1.4v1.4h-1.4zM1561.99 827.8h1.4v1.4h-1.4zM32.1 872.33h1.4v1.4h-1.4zM1253.38 139.23h1.4v1.4h-1.4zM143.87 467.97h1.4v1.4h-1.4zM567.57 644.27h1.4v1.4h-1.4zM850.78 1069.69h1.4v1.4h-1.4zM1533.8 546.31h1.4v1.4h-1.4zM873.87 658.74h1.4v1.4h-1.4zM406.38 598.15h1.4v1.4h-1.4zM1108.56 1082.54h1.4v1.4h-1.4zM1632.45 678.38h1.4v1.4h-1.4zM445.72 996.55h1.4v1.4h-1.4zM825.13 502.88h1.4v1.4h-1.4zM351.39 26.38h1.4v1.4h-1.4zM968.17 37.44h1.4v1.4h-1.4zM698.79 894.34h1.4v1.4h-1.4zM1742.53 449.8h1.4v1.4h-1.4zM1475.85 369.59h1.4v1.4h-1.4zM678.24 1001.95h1.4v1.4h-1.4zM324.7 990.41h1.4v1.4h-1.4zM938.74 248.49h1.4v1.4h-1.4zM645.19 325.45h1.4v1.4h-1.4zM444.08 540.94h1.4v1.4h-1.4zM660.75 719.96h1.4v1.4h-1.4zM1247.62 394.61h1.4v1.4h-1.4zM1566.34 278.97h1.4v1.4h-1.4zM401.97 317.41h1.4v1.4h-1.4zM982.84 1189.01h1.4v1.4h-1.4zM58.35 993.19h1.4v1.4h-1.4zM740.25 1073.74h1.4v1.4h-1.4zM1013.7 156.42h1.4v1.4h-1.4zM1343.73 793.25h1.4v1.4h-1.4zM136.64 990.52h1.4v1.4h-1.4zM15.65 178.94h1.4v1.4h-1.4zM427.26 513.52h1.4v1.4h-1.4zM377.87 353.2h1.4v1.4h-1.4zM1497.79 182.8h1.4v1.4h-1.4zM495.82 729.15h1.4v1.4h-1.4zM573.22 301.1h1.4v1.4h-1.4zM160.83 829.82h1.4v1.4h-1.4zM682.87 181.53h1.4v1.4h-1.4zM917.15 773.64h1.4v1.4h-1.4zM785.92 388.31h1.4v1.4h-1.4zM1197.93 441.51h1.4v1.4h-1.4zM1218.9 161.04h1.4v1.4h-1.4zM998.3 430.41h1.4v1.4h-1.4zM484.56 581.1h1.4v1.4h-1.4zM1532.08 439.05h1.4v1.4h-1.4zM512.03 1113.64h1.4v1.4h-1.4zM742.34 488.03h1.4v1.4h-1.4zM524.25 4.21h1.4v1.4h-1.4zM1677.17 153.44h1.4v1.4h-1.4zM7.89 853.28h1.4v1.4h-1.4zM1719.82 407.06h1.4v1.4h-1.4zM290.78 88.58h1.4v1.4h-1.4zM1165.89 201.31h1.4v1.4h-1.4zM947.32 361.44h1.4v1.4h-1.4zM535.97 559.1h1.4v1.4h-1.4zM1185.84 511.67h1.4v1.4h-1.4zM728.76 668.35h1.4v1.4h-1.4zM1335.22 276.73h1.4v1.4h-1.4zM1447.38 567.91h1.4v1.4h-1.4zM81.17 1080.93h1.4v1.4h-1.4zM677.71 1138.19h1.4v1.4h-1.4zM444.57 103.65h1.4v1.4h-1.4zM1305.28 785.67h1.4v1.4h-1.4zM1.55 593.56h1.4v1.4h-1.4zM489.75 1136.21h1.4v1.4h-1.4zM919.04 291.44h1.4v1.4h-1.4zM1596.71 966.41h1.4v1.4h-1.4zM769.06 1111.22h1.4v1.4h-1.4zM1099.09 522.08h1.4v1.4h-1.4zM191.66 714.16h1.4v1.4h-1.4zM743.4 341.57h1.4v1.4h-1.4zM1.01 525.65h1.4v1.4h-1.4zM419.97 444.71h1.4v1.4h-1.4zM890.89 554.21h1.4v1.4h-1.4zM418.7 560.38h1.4v1.4h-1.4zM1168.47 282.47h1.4v1.4h-1.4zM484.76 332.17h1.4v1.4h-1.4zM479.07 250.65h1.4v1.4h-1.4zM919.22 1123.31h1.4v1.4h-1.4zM1484.01 606.71h1.4v1.4h-1.4zM838.8 62.76h1.4v1.4h-1.4zM1786.77 532.43h1.4v1.4h-1.4zM234.44 16.73h1.4v1.4h-1.4zM632.97 230.52h1.4v1.4h-1.4zM1248.89 154.5h1.4v1.4h-1.4zM1512.51 826.09h1.4v1.4h-1.4zM130.26 346.55h1.4v1.4h-1.4zM1295.64 811.44h1.4v1.4h-1.4zM1500.39 589.2h1.4v1.4h-1.4zM309.75 234.64h1.4v1.4h-1.4zM613.64 867.96h1.4v1.4h-1.4zM896.13 427.53h1.4v1.4h-1.4zM1591.39 161.34h1.4v1.4h-1.4zM1167.71 172h1.4v1.4h-1.4zM25.45 748.76h1.4v1.4h-1.4zM1769.14 1029.01h1.4v1.4h-1.4zM306.01 337.19h1.4v1.4h-1.4zM1061.35 102.04h1.4v1.4h-1.4zM235.84 68.68h1.4v1.4h-1.4zM1551.04 505.41h1.4v1.4h-1.4zM1346.38 500.17h1.4v1.4h-1.4zM502.12 478.79h1.4v1.4h-1.4zM1421.88 541.71h1.4v1.4h-1.4zM136.26 402.6h1.4v1.4h-1.4zM1457.54 455.34h1.4v1.4h-1.4zM772.54 473.03h1.4v1.4h-1.4zM267.34 247.34h1.4v1.4h-1.4zM281.56 1174.01h1.4v1.4h-1.4zM1717.19 893.68h1.4v1.4h-1.4zM1240.63 17.69h1.4v1.4h-1.4zM1311.11 159.22h1.4v1.4h-1.4zM1797.95 1066.89h1.4v1.4h-1.4zM1335.66 385.35h1.4v1.4h-1.4zM383.24 474.42h1.4v1.4h-1.4zM1195.91 590.78h1.4v1.4h-1.4zM658.57 288.67h1.4v1.4h-1.4zM1.87 559.87h1.4v1.4h-1.4zM683.02 560.46h1.4v1.4h-1.4zM1156.45 13.76h1.4v1.4h-1.4zM1254.24 181.86h1.4v1.4h-1.4zM151.06 610.56h1.4v1.4h-1.4zM744.06 535.14h1.4v1.4h-1.4zM223.7 873.53h1.4v1.4h-1.4zM989.41 453.89h1.4v1.4h-1.4zM205.88 403.15h1.4v1.4h-1.4zM865.74 674.98h1.4v1.4h-1.4zM1136.66 295.08h1.4v1.4h-1.4zM1454.8 894.64h1.4v1.4h-1.4zM288.3 1057.27h1.4v1.4h-1.4zM1778.18 346.44h1.4v1.4h-1.4zM398.78 571.98h1.4v1.4h-1.4zM31.47 1062.83h1.4v1.4h-1.4zM1458.82 366.94h1.4v1.4h-1.4zM469.29 1078.2h1.4v1.4h-1.4zM57.25 662.82h1.4v1.4h-1.4zM714.41 746.91h1.4v1.4h-1.4zM244.37 914.65h1.4v1.4h-1.4zM862.4 489.66h1.4v1.4h-1.4zM284.79 167.8h1.4v1.4h-1.4zM410.53 244.28h1.4v1.4h-1.4zM588.87 452.75h1.4v1.4h-1.4zM376.99 103.19h1.4v1.4h-1.4zM379.21 908.14h1.4v1.4h-1.4zM477.35 158.91h1.4v1.4h-1.4zM1098.14 690.19h1.4v1.4h-1.4zM1262 654.36h1.4v1.4h-1.4zM1551.52 1045.67h1.4v1.4h-1.4zM903.61 244.68h1.4v1.4h-1.4zM1799.4 527.99h1.4v1.4h-1.4zM1664.19 1040.41h1.4v1.4h-1.4zM1391.9 599.04h1.4v1.4h-1.4zM26.73 676.5h1.4v1.4h-1.4zM1670.12 296.84h1.4v1.4h-1.4zM851.16 544.93h1.4v1.4h-1.4zM397.72 718.58h1.4v1.4h-1.4zM506.23 942.28h1.4v1.4h-1.4zM699.57 65.48h1.4v1.4h-1.4zM98.19 1024.07h1.4v1.4h-1.4zM1687.72 736.83h1.4v1.4h-1.4zM1673.43 256.06h1.4v1.4h-1.4zM549.75 141.17h1.4v1.4h-1.4zM464.09 362.77h1.4v1.4h-1.4zM1603.45 884.29h1.4v1.4h-1.4zM320.21 1050.72h1.4v1.4h-1.4zM483.56 173.09h1.4v1.4h-1.4zM468.31 849.06h1.4v1.4h-1.4zM1513.93 1090.32h1.4v1.4h-1.4zM1552.63 264.68h1.4v1.4h-1.4zM182.78 761.87h1.4v1.4h-1.4zM1126.2 717.7h1.4v1.4h-1.4zM1705.88 208.95h1.4v1.4h-1.4zM891.06 76.28h1.4v1.4h-1.4zM651.09 462.49h1.4v1.4h-1.4zM1096.56 935.88h1.4v1.4h-1.4zM1439.11 344.19h1.4v1.4h-1.4zM1228.52 1168.08h1.4v1.4h-1.4zM1718.43 384.91h1.4v1.4h-1.4zM37.63 456.52h1.4v1.4h-1.4zM1602.76 420.17h1.4v1.4h-1.4zM1521.21 1035.83h1.4v1.4h-1.4zM1112.29 852.94h1.4v1.4h-1.4zM150.22 743.01h1.4v1.4h-1.4zM966.27 385.85h1.4v1.4h-1.4zM327.58 798.86h1.4v1.4h-1.4zM1323.36 656.93h1.4v1.4h-1.4zM1463.16 1027.89h1.4v1.4h-1.4zM714.67 25.44h1.4v1.4h-1.4zM605.32 45.43h1.4v1.4h-1.4zM514.61 40.26h1.4v1.4h-1.4zM1673.76 321.19h1.4v1.4h-1.4zM1052.87 1047.19h1.4v1.4h-1.4zM1377.11 456.65h1.4v1.4h-1.4zM1454.52 160.33h1.4v1.4h-1.4zM950.36 833.36h1.4v1.4h-1.4zM1520.55 896.99h1.4v1.4h-1.4zM173.62 106.44h1.4v1.4h-1.4zM1404.12 694.78h1.4v1.4h-1.4zM20.74 748.14h1.4v1.4h-1.4zM642.97 611.61h1.4v1.4h-1.4zM257.53 704.45h1.4v1.4h-1.4zM778.63 304.66h1.4v1.4h-1.4zM1780.71 1108.11h1.4v1.4h-1.4zM1713.27 172.62h1.4v1.4h-1.4zM1356.89 730.69h1.4v1.4h-1.4zM1682.89 651.03h1.4v1.4h-1.4zM501.28 679.73h1.4v1.4h-1.4zM393.26 1147.96h1.4v1.4h-1.4zM123.89 893.69h1.4v1.4h-1.4zM1556.31 774.04h1.4v1.4h-1.4zM158.51 28.19h1.4v1.4h-1.4zM1403.79 654.58h1.4v1.4h-1.4zM1736.71 0.68h1.4v1.4h-1.4zM1018.92 1114.15h1.4v1.4h-1.4zM1012.41 112.56h1.4v1.4h-1.4zM842.97 1160.38h1.4v1.4h-1.4zM41.07 621.82h1.4v1.4h-1.4zM298.8 1170.84h1.4v1.4h-1.4zM1086.82 1055h1.4v1.4h-1.4zM252.01 49.51h1.4v1.4h-1.4zM830.72 792.25h1.4v1.4h-1.4zM300.99 471.52h1.4v1.4h-1.4zM1737.93 477.56h1.4v1.4h-1.4zM1222.67 429.93h1.4v1.4h-1.4zM888.96 518.2h1.4v1.4h-1.4zM1422.18 233.72h1.4v1.4h-1.4zM882.77 776.01h1.4v1.4h-1.4zM1090.6 177.73h1.4v1.4h-1.4zM570.49 906.4h1.4v1.4h-1.4zM1588.08 309.68h1.4v1.4h-1.4zM573.24 513.06h1.4v1.4h-1.4zM1615.01 844.37h1.4v1.4h-1.4zM203.13 849.39h1.4v1.4h-1.4zM753.05 530.02h1.4v1.4h-1.4zM743.91 52.17h1.4v1.4h-1.4zM1231.52 11.77h1.4v1.4h-1.4zM1628.43 26.48h1.4v1.4h-1.4zM1524.86 1185.33h1.4v1.4h-1.4zM1084.62 391.02h1.4v1.4h-1.4zM1078.59 68.54h1.4v1.4h-1.4zM1644.77 703.77h1.4v1.4h-1.4zM1570.55 731.43h1.4v1.4h-1.4zM437.28 1188.27h1.4v1.4h-1.4zM1285.69 930.54h1.4v1.4h-1.4zM1719.66 979.87h1.4v1.4h-1.4zM1488.91 336.43h1.4v1.4h-1.4zM1748.34 765.46h1.4v1.4h-1.4zM1659.22 643.07h1.4v1.4h-1.4zM1390.99 1144.41h1.4v1.4h-1.4zM868.37 215.65h1.4v1.4h-1.4zM634.67 112.85h1.4v1.4h-1.4zM1016.68 2.64h1.4v1.4h-1.4zM1769.37 5.81h1.4v1.4h-1.4zM584.06 562.61h1.4v1.4h-1.4zM1592.98 1157.67h1.4v1.4h-1.4zM327.48 882.75h1.4v1.4h-1.4zM1175.26 786.41h1.4v1.4h-1.4zM670.57 318.37h1.4v1.4h-1.4zM123.08 230.36h1.4v1.4h-1.4zM674.05 928.43h1.4v1.4h-1.4zM805.41 315.79h1.4v1.4h-1.4zM1743.83 617.96h1.4v1.4h-1.4zM1.33 526.19h1.4v1.4h-1.4zM1195.89 379.91h1.4v1.4h-1.4zM1706.25 761.11h1.4v1.4h-1.4zM1673.33 292.53h1.4v1.4h-1.4zM159.92 209.13h1.4v1.4h-1.4zM167.37 923.12h1.4v1.4h-1.4zM66.98 455.28h1.4v1.4h-1.4zM1130.62 1012.66h1.4v1.4h-1.4zM298.38 86.23h1.4v1.4h-1.4zM1378.51 492.99h1.4v1.4h-1.4zM1264.14 655.96h1.4v1.4h-1.4zM550.11 628.05h1.4v1.4h-1.4zM671.86 323.9h1.4v1.4h-1.4zM973.55 312.85h1.4v1.4h-1.4zM1217.48 1029.41h1.4v1.4h-1.4zM1291.87 537h1.4v1.4h-1.4zM279.83 1026.11h1.4v1.4h-1.4zM1060.12 743.5h1.4v1.4h-1.4zM534.17 766.96h1.4v1.4h-1.4zM1741.28 806.42h1.4v1.4h-1.4zM1036.94 163.3h1.4v1.4h-1.4zM148.74 945.91h1.4v1.4h-1.4zM351.57 874.14h1.4v1.4h-1.4zM66.96 258.78h1.4v1.4h-1.4zM833.36 376.47h1.4v1.4h-1.4zM1492.3 1179.54h1.4v1.4h-1.4zM869.01 115.58h1.4v1.4h-1.4zM1468.49 753.52h1.4v1.4h-1.4zM1307.08 611.29h1.4v1.4h-1.4zM1124.1 1178.38h1.4v1.4h-1.4zM339.47 819.5h1.4v1.4h-1.4zM1366.62 479.13h1.4v1.4h-1.4zM1167.4 290.21h1.4v1.4h-1.4zM1107.59 955.26h1.4v1.4h-1.4zM438.3 553.54h1.4v1.4h-1.4zM1393.16 347.14h1.4v1.4h-1.4zM65.81 588.73h1.4v1.4h-1.4zM1133.33 217.84h1.4v1.4h-1.4zM129.28 174.62h1.4v1.4h-1.4zM1306.32 509.35h1.4v1.4h-1.4zM1686.92 209.26h1.4v1.4h-1.4zM1472.88 740.37h1.4v1.4h-1.4zM814.43 609.28h1.4v1.4h-1.4zM903.19 362.06h1.4v1.4h-1.4zM1649.14 485.25h1.4v1.4h-1.4zM471.64 943.52h1.4v1.4h-1.4zM1471.99 346.53h1.4v1.4h-1.4zM830.42 926.74h1.4v1.4h-1.4zM1302.1 34.85h1.4v1.4h-1.4zM120.3 344.84h1.4v1.4h-1.4zM1331.11 1073.87h1.4v1.4h-1.4zM744.02 69.69h1.4v1.4h-1.4zM200.69 1113.81h1.4v1.4h-1.4zM1528.45 520.75h1.4v1.4h-1.4zM894.78 965.74h1.4v1.4h-1.4zM1702.07 759.13h1.4v1.4h-1.4zM452.8 1059.53h1.4v1.4h-1.4zM959.08 123.57h1.4v1.4h-1.4zM1379.46 386.91h1.4v1.4h-1.4zM83.34 150.27h1.4v1.4h-1.4zM1258.98 476.4h1.4v1.4h-1.4zM569.15 336.96h1.4v1.4h-1.4zM638.69 748.03h1.4v1.4h-1.4zM1490.47 1040.88h1.4v1.4h-1.4zM794.86 926.84h1.4v1.4h-1.4zM311.62 833.16h1.4v1.4h-1.4zM233.82 314.22h1.4v1.4h-1.4zM1699.67 285.23h1.4v1.4h-1.4zM1470.45 1105.96h1.4v1.4h-1.4zM1691.68 763.37h1.4v1.4h-1.4zM1122.24 677.36h1.4v1.4h-1.4zM44.86 1006.58h1.4v1.4h-1.4zM33.28 848.79h1.4v1.4h-1.4zM1710.02 1046.23h1.4v1.4h-1.4zM535.89 910.24h1.4v1.4h-1.4zM1108.47 47.22h1.4v1.4h-1.4zM562.84 468.24h1.4v1.4h-1.4zM208.32 123.56h1.4v1.4h-1.4zM1109.99 321.14h1.4v1.4h-1.4zM1489.85 78.6h1.4v1.4h-1.4zM1669.89 174.82h1.4v1.4h-1.4zM804.2 1147.79h1.4v1.4h-1.4zM1391.72 981.18h1.4v1.4h-1.4zM360.54 565.25h1.4v1.4h-1.4zM1325.61 572.44h1.4v1.4h-1.4zM1006.14 706.8h1.4v1.4h-1.4zM692.07 13.14h1.4v1.4h-1.4zM1745.45 815.24h1.4v1.4h-1.4zM261.36 399.83h1.4v1.4h-1.4zM1790.28 296.24h1.4v1.4h-1.4zM257.73 564.97h1.4v1.4h-1.4zM1656.88 812.29h1.4v1.4h-1.4zM1409.02 400.36h1.4v1.4h-1.4zM599.7 657.3h1.4v1.4h-1.4zM174.34 1028.77h1.4v1.4h-1.4zM1514.75 690.08h1.4v1.4h-1.4zM363.9 924.51h1.4v1.4h-1.4zM994.72 1085.85h1.4v1.4h-1.4zM462.35 54.89h1.4v1.4h-1.4zM1403.19 1050.11h1.4v1.4h-1.4zM1224.76 972.13h1.4v1.4h-1.4zM968.2 334.24h1.4v1.4h-1.4zM678.48 168.34h1.4v1.4h-1.4zM1238.74 501.4h1.4v1.4h-1.4zM1056.74 70.79h1.4v1.4h-1.4zM969.2 767.13h1.4v1.4h-1.4zM503.97 769.8h1.4v1.4h-1.4zM1146.83 245.89h1.4v1.4h-1.4zM1693.52 983.12h1.4v1.4h-1.4zM651.46 941.73h1.4v1.4h-1.4zM1175.16 821.74h1.4v1.4h-1.4zM195.04 165.71h1.4v1.4h-1.4zM1706.79 793.58h1.4v1.4h-1.4zM1454.15 812.1h1.4v1.4h-1.4zM137.12 428.74h1.4v1.4h-1.4zM1500.09 786.4h1.4v1.4h-1.4zM247.69 916.78h1.4v1.4h-1.4zM554.07 518.77h1.4v1.4h-1.4zM1381.57 68.2h1.4v1.4h-1.4zM471.89 122.51h1.4v1.4h-1.4zM1528.71 1084.34h1.4v1.4h-1.4zM63.68 717.4h1.4v1.4h-1.4zM1343.93 637.17h1.4v1.4h-1.4zM245.8 112.62h1.4v1.4h-1.4zM661.35 191.54h1.4v1.4h-1.4zM1292.11 844.79h1.4v1.4h-1.4zM1798.2 271.18h1.4v1.4h-1.4zM245.42 644.05h1.4v1.4h-1.4zM702.72 595.01h1.4v1.4h-1.4zM1014.62 878.94h1.4v1.4h-1.4zM534.86 85.87h1.4v1.4h-1.4zM1244.9 1063.06h1.4v1.4h-1.4zM1784.98 880.32h1.4v1.4h-1.4zM1201.04 401.9h1.4v1.4h-1.4zM1793.4 396.89h1.4v1.4h-1.4zM1289.05 145.95h1.4v1.4h-1.4zM187.98 303.61h1.4v1.4h-1.4zM603.99 743.57h1.4v1.4h-1.4zM547.89 881.7h1.4v1.4h-1.4zM1594.43 600.66h1.4v1.4h-1.4zM1367.27 569.33h1.4v1.4h-1.4zM1684.5 700.75h1.4v1.4h-1.4zM1025.43 761.67h1.4v1.4h-1.4zM1402.51 618.37h1.4v1.4h-1.4zM1365.11 443.09h1.4v1.4h-1.4zM1537.53 352.49h1.4v1.4h-1.4zM1714.56 257.64h1.4v1.4h-1.4zM775.11 438.59h1.4v1.4h-1.4zM1427.24 522.97h1.4v1.4h-1.4zM1080.61 1067.24h1.4v1.4h-1.4zM1147.04 218.69h1.4v1.4h-1.4zM1733.44 604.7h1.4v1.4h-1.4zM571.95 512.76h1.4v1.4h-1.4zM1244.32 608.48h1.4v1.4h-1.4zM502.33 450.03h1.4v1.4h-1.4zM195.08 553.44h1.4v1.4h-1.4zM637.67 85.73h1.4v1.4h-1.4zM1295.83 527.25h1.4v1.4h-1.4zM1057.01 656.66h1.4v1.4h-1.4zM151.84 873.78h1.4v1.4h-1.4zM1798.42 316.5h1.4v1.4h-1.4zM1607.97 6.79h1.4v1.4h-1.4zM76.59 200.37h1.4v1.4h-1.4zM728.89 999.92h1.4v1.4h-1.4zM1190.17 1002.41h1.4v1.4h-1.4zM990.56 106.56h1.4v1.4h-1.4zM848.31 1011.24h1.4v1.4h-1.4zM498.25 297.31h1.4v1.4h-1.4zM171.13 1005.8h1.4v1.4h-1.4zM194.9 985.73h1.4v1.4h-1.4zM1712.71 1093.38h1.4v1.4h-1.4zM1296.39 775.31h1.4v1.4h-1.4zM1647.7 1080.43h1.4v1.4h-1.4zM693.84 699.7h1.4v1.4h-1.4zM1705.76 70.78h1.4v1.4h-1.4zM599.93 767.08h1.4v1.4h-1.4zM1075.81 54.71h1.4v1.4h-1.4zM377.16 753.31h1.4v1.4h-1.4zM1368.58 886.13h1.4v1.4h-1.4zM1737.42 815.87h1.4v1.4h-1.4zM1643.23 268.1h1.4v1.4h-1.4zM24.73 1079.23h1.4v1.4h-1.4zM1005.08 756.18h1.4v1.4h-1.4zM1744.3 1061.03h1.4v1.4h-1.4zM1083.11 266.05h1.4v1.4h-1.4zM492.36 338.67h1.4v1.4h-1.4zM527.16 278.58h1.4v1.4h-1.4zM1323.2 57.91h1.4v1.4h-1.4zM165.35 1054.89h1.4v1.4h-1.4zM1207.83 951.65h1.4v1.4h-1.4zM1096.84 487.68h1.4v1.4h-1.4zM639.1 492.64h1.4v1.4h-1.4zM1497.93 632.65h1.4v1.4h-1.4zM1407.2 366.94h1.4v1.4h-1.4zM547.97 644.45h1.4v1.4h-1.4zM157.55 136.01h1.4v1.4h-1.4zM1623.45 611.38h1.4v1.4h-1.4zM1583.9 265.99h1.4v1.4h-1.4zM629.17 801.45h1.4v1.4h-1.4zM31.17 96.33h1.4v1.4h-1.4zM305.15 346.56h1.4v1.4h-1.4zM1638.68 903.45h1.4v1.4h-1.4zM1041.75 96.43h1.4v1.4h-1.4zM1056.75 84.82h1.4v1.4h-1.4zM1663.85 909.62h1.4v1.4h-1.4zM80.33 75.58h1.4v1.4h-1.4zM977.75 531.03h1.4v1.4h-1.4zM874.57 10.56h1.4v1.4h-1.4zM1545.14 424.05h1.4v1.4h-1.4zM254.71 379.25h1.4v1.4h-1.4zM1304.13 1147.58h1.4v1.4h-1.4zM1423.09 824.82h1.4v1.4h-1.4zM542.25 139.58h1.4v1.4h-1.4zM1568.95 796.61h1.4v1.4h-1.4zM333.08 1196.95h1.4v1.4h-1.4zM502.73 109.38h1.4v1.4h-1.4zM22.46 883.07h1.4v1.4h-1.4zM123.39 172.65h1.4v1.4h-1.4zM251.49 253.31h1.4v1.4h-1.4zM1459.72 895.12h1.4v1.4h-1.4zM1619.81 681.7h1.4v1.4h-1.4zM1440.58 72.43h1.4v1.4h-1.4zM823.34 855.2h1.4v1.4h-1.4zM1472.49 1186.41h1.4v1.4h-1.4zM1197.75 763.16h1.4v1.4h-1.4zM1366.67 1131.86h1.4v1.4h-1.4zM1181.46 680.81h1.4v1.4h-1.4zM464.66 782.18h1.4v1.4h-1.4zM226.63 130.98h1.4v1.4h-1.4zM991.2 82.55h1.4v1.4h-1.4zM229.54 322.19h1.4v1.4h-1.4zM1056.43 124.87h1.4v1.4h-1.4zM1562.54 939.14h1.4v1.4h-1.4zM753.97 1173.37h1.4v1.4h-1.4zM1743.87 1134.63h1.4v1.4h-1.4zM757.11 371.62h1.4v1.4h-1.4zM1516.94 1168.07h1.4v1.4h-1.4zM1383.47 896.13h1.4v1.4h-1.4zM1787.69 67.49h1.4v1.4h-1.4zM510.88 189.08h1.4v1.4h-1.4zM477.5 596.18h1.4v1.4h-1.4zM1777.14 621.35h1.4v1.4h-1.4zM998.2 547.32h1.4v1.4h-1.4zM1212.81 360.57h1.4v1.4h-1.4zM44.44 1181.07h1.4v1.4h-1.4zM1469.34 609.2h1.4v1.4h-1.4zM610.09 658.43h1.4v1.4h-1.4zM1499.44 751.7h1.4v1.4h-1.4zM429.58 59.19h1.4v1.4h-1.4zM1756.33 297.61h1.4v1.4h-1.4zM505.19 43.79h1.4v1.4h-1.4zM662.79 796.67h1.4v1.4h-1.4zM120.01 717.31h1.4v1.4h-1.4zM833.82 683.84h1.4v1.4h-1.4zM1276.21 323.12h1.4v1.4h-1.4zM1075.54 690.44h1.4v1.4h-1.4zM360.97 517.35h1.4v1.4h-1.4zM1685.67 577h1.4v1.4h-1.4zM567.31 98.12h1.4v1.4h-1.4zM360.09 308.93h1.4v1.4h-1.4zM1375.88 1086.78h1.4v1.4h-1.4zM373.85 839.87h1.4v1.4h-1.4zM77.31 1074.29h1.4v1.4h-1.4zM700.39 820.69h1.4v1.4h-1.4zM918.75 680.65h1.4v1.4h-1.4zM20.02 1162.8h1.4v1.4h-1.4zM67.42 634.11h1.4v1.4h-1.4zM507.42 1098.91h1.4v1.4h-1.4zM350.65 118.2h1.4v1.4h-1.4zM855.22 433.67h1.4v1.4h-1.4zM1746.2 800.94h1.4v1.4h-1.4zM1420.77 16.47h1.4v1.4h-1.4zM1174.04 303.26h1.4v1.4h-1.4zM705.79 109.37h1.4v1.4h-1.4zM1365.61 1158.5h1.4v1.4h-1.4zM1418.31 144.12h1.4v1.4h-1.4zM896.77 437.61h1.4v1.4h-1.4zM277.29 195.8h1.4v1.4h-1.4zM571.42 572.96h1.4v1.4h-1.4zM1490.31 464.9h1.4v1.4h-1.4zM452.23 646.95h1.4v1.4h-1.4zM103.01 973.69h1.4v1.4h-1.4zM523.6 1180.55h1.4v1.4h-1.4zM1061.48 299.35h1.4v1.4h-1.4zM1055.19 633.93h1.4v1.4h-1.4zM1342.11 715.55h1.4v1.4h-1.4zM1680.57 970.68h1.4v1.4h-1.4zM232.67 572.21h1.4v1.4h-1.4zM483.08 789.02h1.4v1.4h-1.4zM1588.27 25.95h1.4v1.4h-1.4zM931.49 610.12h1.4v1.4h-1.4zM510.04 410.22h1.4v1.4h-1.4zM900.11 664.16h1.4v1.4h-1.4zM140.77 451.91h1.4v1.4h-1.4zM669.03 1041.13h1.4v1.4h-1.4zM1605.23 500.45h1.4v1.4h-1.4zM442.41 1023.67h1.4v1.4h-1.4zM665.84 126.47h1.4v1.4h-1.4zM505.9 809.92h1.4v1.4h-1.4zM1010.97 811.99h1.4v1.4h-1.4zM953.41 272.72h1.4v1.4h-1.4zM1278.91 566.35h1.4v1.4h-1.4zM478.73 1189.02h1.4v1.4h-1.4zM355.61 487.83h1.4v1.4h-1.4zM790.48 1045.46h1.4v1.4h-1.4zM872.36 465.77h1.4v1.4h-1.4zM782.93 462.52h1.4v1.4h-1.4zM1636.87 936.27h1.4v1.4h-1.4zM514.86 424.78h1.4v1.4h-1.4zM786.84 1120.84h1.4v1.4h-1.4zM547 597.73h1.4v1.4h-1.4zM1359.46 710.11h1.4v1.4h-1.4zM1312.39 54.81h1.4v1.4h-1.4zM1242 1010.3h1.4v1.4h-1.4zM153.88 998.39h1.4v1.4h-1.4zM624.48 1050.5h1.4v1.4h-1.4zM109.24 1186.47h1.4v1.4h-1.4zM790.29 175.59h1.4v1.4h-1.4zM621.65 610.51h1.4v1.4h-1.4zM1256.01 819.49h1.4v1.4h-1.4zM1113.22 514.9h1.4v1.4h-1.4zM1036.12 602.3h1.4v1.4h-1.4zM1315.85 452.6h1.4v1.4h-1.4zM93.57 865.94h1.4v1.4h-1.4zM485.15 1161.8h1.4v1.4h-1.4zM1772.45 897.99h1.4v1.4h-1.4zM100.71 399.58h1.4v1.4h-1.4zM823.31 513.77h1.4v1.4h-1.4zM1371.17 1148.62h1.4v1.4h-1.4zM791.76 1059.67h1.4v1.4h-1.4zM896.48 763.43h1.4v1.4h-1.4zM953.25 895.81h1.4v1.4h-1.4zM896.24 520.55h1.4v1.4h-1.4zM1338.66 436.8h1.4v1.4h-1.4zM1226.86 565.26h1.4v1.4h-1.4zM1578.59 759.16h1.4v1.4h-1.4zM1294.82 33.69h1.4v1.4h-1.4zM1473.36 96.02h1.4v1.4h-1.4zM1434.45 878.34h1.4v1.4h-1.4zM1710.1 657.86h1.4v1.4h-1.4zM1664.83 1111.3h1.4v1.4h-1.4zM1113.96 380.13h1.4v1.4h-1.4zM1772.16 39.58h1.4v1.4h-1.4zM510.17 693.19h1.4v1.4h-1.4zM1280.56 1080.79h1.4v1.4h-1.4zM557.97 1106.02h1.4v1.4h-1.4zM1231.35 424.37h1.4v1.4h-1.4zM1200.93 428.9h1.4v1.4h-1.4zM104.63 1177.92h1.4v1.4h-1.4zM1391.96 31.72h1.4v1.4h-1.4zM577.84 512.99h1.4v1.4h-1.4zM1460.3 213.42h1.4v1.4h-1.4zM173.47 850.52h1.4v1.4h-1.4zM540.61 911.74h1.4v1.4h-1.4zM1327.61 203.62h1.4v1.4h-1.4zM1640.5 836.44h1.4v1.4h-1.4zM133.06 484.03h1.4v1.4h-1.4zM450.98 1121.5h1.4v1.4h-1.4zM960.11 930.63h1.4v1.4h-1.4zM479.57 1074.34h1.4v1.4h-1.4zM135.25 1070.17h1.4v1.4h-1.4zM1091.06 554.18h1.4v1.4h-1.4zM1419.94 329.28h1.4v1.4h-1.4zM1489.28 927.5h1.4v1.4h-1.4zM660.51 349.13h1.4v1.4h-1.4zM1505.54 695.31h1.4v1.4h-1.4zM728.04 1018.67h1.4v1.4h-1.4zM461.98 716.75h1.4v1.4h-1.4zM1315.57 976.36h1.4v1.4h-1.4zM1292.29 531.28h1.4v1.4h-1.4zM1728.3 632.14h1.4v1.4h-1.4zM1231.66 284.68h1.4v1.4h-1.4zM430.33 139.15h1.4v1.4h-1.4zM1556.35 1126.99h1.4v1.4h-1.4zM737.42 512.52h1.4v1.4h-1.4zM558.89 565.24h1.4v1.4h-1.4zM1206.03 1181.15h1.4v1.4h-1.4zM1765.79 680.02h1.4v1.4h-1.4zM461.11 582.45h1.4v1.4h-1.4zM1178.99 570.78h1.4v1.4h-1.4zM499.15 791.87h1.4v1.4h-1.4zM1492.14 528.84h1.4v1.4h-1.4zM1636.78 27.28h1.4v1.4h-1.4zM248.64 698h1.4v1.4h-1.4zM120.27 1189.71h1.4v1.4h-1.4zM1622.02 229.01h1.4v1.4h-1.4zM856.63 636.64h1.4v1.4h-1.4zM1094.01 36.12h1.4v1.4h-1.4zM1687.68 238.75h1.4v1.4h-1.4zM1718.33 528.87h1.4v1.4h-1.4zM457.77 407.97h1.4v1.4h-1.4zM1757.41 405.76h1.4v1.4h-1.4zM1762.94 1117.58h1.4v1.4h-1.4zM1214.73 271.71h1.4v1.4h-1.4zM973.39 873.69h1.4v1.4h-1.4zM1373.15 507.84h1.4v1.4h-1.4z" fill="#FFFFFF" opacity="0.05"/><rect width="1800" height="1200" fill="url(#vig)" opacity="0.4"/></svg>