<svg xmlns="http://www.w3.org/2000/svg" viewBox="0 0 1800 1200" preserveAspectRatio="xMidYMid slice"><rect width="1800" height="1200" fill="#161513"/>
  <defs>
    <linearGradient id="sky" x1="0" y1="0" x2="0" y2="1">
      <stop offset="0" stop-color="#161513"/><stop offset="1" stop-color="#4A4E55"/>
    </linearGradient>
    <linearGradient id="skycliff" x1="0" y1="0" x2="0" y2="1">
      <stop offset="0" stop-color="#18171B"/><stop offset="0.52" stop-color="#5C6674"/><stop offset="0.78" stop-color="#C79F63"/><stop offset="1" stop-color="#EDD9B4"/>
    </linearGradient>
    <linearGradient id="skyfold" x1="0" y1="0" x2="0" y2="1">
      <stop offset="0" stop-color="#2A2E3A"/><stop offset="0.55" stop-color="#88604B"/><stop offset="0.8" stop-color="#D08950"/><stop offset="1" stop-color="#EFC98C"/>
    </linearGradient>
    <linearGradient id="skygold" x1="0" y1="0" x2="0" y2="1">
      <stop offset="0" stop-color="#1B1A18"/><stop offset="0.5" stop-color="#4E4B41"/><stop offset="0.75" stop-color="#C2A472"/><stop offset="1" stop-color="#E9D9B8"/>
    </linearGradient>
    <linearGradient id="skyday" x1="0" y1="0" x2="0" y2="1">
      <stop offset="0" stop-color="#23241F"/><stop offset="0.55" stop-color="#6E7366"/><stop offset="1" stop-color="#C9C7B4"/>
    </linearGradient>
    <linearGradient id="sear" x1="0" y1="0" x2="0" y2="1">
      <stop offset="0" stop-color="#39464B"/><stop offset="1" stop-color="#171C1F"/>
    </linearGradient>
    <linearGradient id="sead" x1="0" y1="0" x2="0" y2="1">
      <stop offset="0" stop-color="#4A5D60"/><stop offset="1" stop-color="#1E272A"/>
    </linearGradient>
    <linearGradient id="glassy" x1="0" y1="0" x2="1" y2="0.25">
      <stop offset="0" stop-color="#20242A"/><stop offset="0.5" stop-color="#A7B6B8"/><stop offset="1" stop-color="#1C2026"/>
    </linearGradient>
    <linearGradient id="glasslit" x1="0" y1="0" x2="0" y2="1">
      <stop offset="0" stop-color="#E7C37C"/><stop offset="1" stop-color="#9A6B33"/>
    </linearGradient>
    <linearGradient id="floorin" x1="0" y1="0" x2="0" y2="1">
      <stop offset="0" stop-color="#8C7A5E"/><stop offset="1" stop-color="#3F3A30"/>
    </linearGradient>
    <radialGradient id="vig" cx="0.5" cy="0.42" r="0.85">
      <stop offset="0.55" stop-color="#000000" stop-opacity="0"/>
      <stop offset="1" stop-color="#000000" stop-opacity="0.55"/>
    </radialGradient>
    <radialGradient id="glow" cx="0.5" cy="0.5" r="0.5">
      <stop offset="0" stop-color="#F5D9A0" stop-opacity="0.55"/>
      <stop offset="1" stop-color="#F5D9A0" stop-opacity="0"/>
    </radialGradient>
    <radialGradient id="sung" cx="0.5" cy="0.5" r="0.5">
      <stop offset="0" stop-color="#FFEBC4" stop-opacity="0.9"/>
      <stop offset="1" stop-color="#FFEBC4" stop-opacity="0"/>
    </radialGradient>
    <linearGradient id="copvert" x1="0" y1="0" x2="1" y2="0">
      <stop offset="0" stop-color="#5E3517"/><stop offset="0.5" stop-color="#A5602E"/><stop offset="1" stop-color="#4A2A12"/>
    </linearGradient>
    <linearGradient id="citysky" x1="0" y1="0" x2="0" y2="1">
      <stop offset="0" stop-color="#20242A"/><stop offset="1" stop-color="#8A8E90"/>
    </linearGradient>
    <linearGradient id="poolw" x1="0" y1="0" x2="0" y2="1">
      <stop offset="0" stop-color="#B98A4E"/><stop offset="1" stop-color="#5E4526"/>
    </linearGradient>
  </defs><rect width="1800" height="1200" fill="url(#citysky)"/><rect x="0" y="360" width="560" height="560" fill="#3A4247"/><g stroke="#2A3136" stroke-width="2.5" opacity="1"><line x1="93.33" y1="360" x2="93.33" y2="920"/><line x1="186.67" y1="360" x2="186.67" y2="920"/><line x1="280" y1="360" x2="280" y2="920"/><line x1="373.33" y1="360" x2="373.33" y2="920"/><line x1="466.67" y1="360" x2="466.67" y2="920"/><line x1="0" y1="546.67" x2="560" y2="546.67"/><line x1="0" y1="733.33" x2="560" y2="733.33"/></g><rect x="560" y="300" width="1240" height="620" fill="#322722"/><rect x="560" y="300" width="58" height="19" fill="#523E30"/><rect x="626" y="300" width="58" height="19" fill="#4A3A32"/><rect x="692" y="300" width="58" height="19" fill="#523E30"/><rect x="758" y="300" width="58" height="19" fill="#4A3A32"/><rect x="824" y="300" width="58" height="19" fill="#4A3A32"/><rect x="890" y="300" width="58" height="19" fill="#4A3A32"/><rect x="956" y="300" width="58" height="19" fill="#523E30"/><rect x="1022" y="300" width="58" height="19" fill="#523E30"/><rect x="1088" y="300" width="58" height="19" fill="#5C4636"/><rect x="1154" y="300" width="58" height="19" fill="#4A3A32"/><rect x="1220" y="300" width="58" height="19" fill="#4A3A32"/><rect x="1286" y="300" width="58" height="19" fill="#4A3A32"/><rect x="1352" y="300" width="58" height="19" fill="#4A3A32"/><rect x="1418" y="300" width="58" height="19" fill="#5C4636"/><rect x="1484" y="300" width="58" height="19" fill="#4A3A32"/><rect x="1550" y="300" width="58" height="19" fill="#523E30"/><rect x="1616" y="300" width="58" height="19" fill="#523E30"/><rect x="1682" y="300" width="58" height="19" fill="#4A3A32"/><rect x="1748" y="300" width="52" height="19" fill="#523E30"/><rect x="560" y="322" width="25" height="19" fill="#4A3A32"/><rect x="593" y="322" width="58" height="19" fill="#4A3A32"/><rect x="659" y="322" width="58" height="19" fill="#4A3A32"/><rect x="725" y="322" width="58" height="19" fill="#523E30"/><rect x="791" y="322" width="58" height="19" fill="#4A3A32"/><rect x="857" y="322" width="58" height="19" fill="#4A3A32"/><rect x="923" y="322" width="58" height="19" fill="#4A3A32"/><rect x="989" y="322" width="58" height="19" fill="#4A3A32"/><rect x="1055" y="322" width="58" height="19" fill="#523E30"/><rect x="1121" y="322" width="58" height="19" fill="#523E30"/><rect x="1187" y="322" width="58" height="19" fill="#523E30"/><rect x="1253" y="322" width="58" height="19" fill="#4A3A32"/><rect x="1319" y="322" width="58" height="19" fill="#4A3A32"/><rect x="1385" y="322" width="58" height="19" fill="#4A3A32"/><rect x="1451" y="322" width="58" height="19" fill="#5C4636"/><rect x="1517" y="322" width="58" height="19" fill="#5C4636"/><rect x="1583" y="322" width="58" height="19" fill="#523E30"/><rect x="1649" y="322" width="58" height="19" fill="#4A3A32"/><rect x="1715" y="322" width="58" height="19" fill="#4A3A32"/><rect x="1781" y="322" width="19" height="19" fill="#5C4636"/><rect x="560" y="344" width="58" height="19" fill="#523E30"/><rect x="626" y="344" width="58" height="19" fill="#4A3A32"/><rect x="692" y="344" width="58" height="19" fill="#4A3A32"/><rect x="758" y="344" width="58" height="19" fill="#4A3A32"/><rect x="824" y="344" width="58" height="19" fill="#4A3A32"/><rect x="890" y="344" width="58" height="19" fill="#523E30"/><rect x="956" y="344" width="58" height="19" fill="#523E30"/><rect x="1022" y="344" width="58" height="19" fill="#523E30"/><rect x="1088" y="344" width="58" height="19" fill="#4A3A32"/><rect x="1154" y="344" width="58" height="19" fill="#4A3A32"/><rect x="1220" y="344" width="58" height="19" fill="#4A3A32"/><rect x="1286" y="344" width="58" height="19" fill="#4A3A32"/><rect x="1352" y="344" width="58" height="19" fill="#4A3A32"/><rect x="1418" y="344" width="58" height="19" fill="#523E30"/><rect x="1484" y="344" width="58" height="19" fill="#4A3A32"/><rect x="1550" y="344" width="58" height="19" fill="#523E30"/><rect x="1616" y="344" width="58" height="19" fill="#4A3A32"/><rect x="1682" y="344" width="58" height="19" fill="#4A3A32"/><rect x="1748" y="344" width="52" height="19" fill="#523E30"/><rect x="560" y="366" width="25" height="19" fill="#4A3A32"/><rect x="593" y="366" width="58" height="19" fill="#4A3A32"/><rect x="659" y="366" width="58" height="19" fill="#4A3A32"/><rect x="725" y="366" width="58" height="19" fill="#4A3A32"/><rect x="791" y="366" width="58" height="19" fill="#4A3A32"/><rect x="857" y="366" width="58" height="19" fill="#4A3A32"/><rect x="923" y="366" width="58" height="19" fill="#4A3A32"/><rect x="989" y="366" width="58" height="19" fill="#5C4636"/><rect x="1055" y="366" width="58" height="19" fill="#4A3A32"/><rect x="1121" y="366" width="58" height="19" fill="#523E30"/><rect x="1187" y="366" width="58" height="19" fill="#523E30"/><rect x="1253" y="366" width="58" height="19" fill="#5C4636"/><rect x="1319" y="366" width="58" height="19" fill="#4A3A32"/><rect x="1385" y="366" width="58" height="19" fill="#5C4636"/><rect x="1451" y="366" width="58" height="19" fill="#4A3A32"/><rect x="1517" y="366" width="58" height="19" fill="#4A3A32"/><rect x="1583" y="366" width="58" height="19" fill="#4A3A32"/><rect x="1649" y="366" width="58" height="19" fill="#5C4636"/><rect x="1715" y="366" width="58" height="19" fill="#4A3A32"/><rect x="1781" y="366" width="19" height="19" fill="#4A3A32"/><rect x="560" y="388" width="58" height="19" fill="#4A3A32"/><rect x="626" y="388" width="58" height="19" fill="#5C4636"/><rect x="692" y="388" width="58" height="19" fill="#5C4636"/><rect x="758" y="388" width="58" height="19" fill="#4A3A32"/><rect x="824" y="388" width="58" height="19" fill="#4A3A32"/><rect x="890" y="388" width="58" height="19" fill="#4A3A32"/><rect x="956" y="388" width="58" height="19" fill="#523E30"/><rect x="1022" y="388" width="58" height="19" fill="#5C4636"/><rect x="1088" y="388" width="58" height="19" fill="#5C4636"/><rect x="1154" y="388" width="58" height="19" fill="#523E30"/><rect x="1220" y="388" width="58" height="19" fill="#5C4636"/><rect x="1286" y="388" width="58" height="19" fill="#5C4636"/><rect x="1352" y="388" width="58" height="19" fill="#4A3A32"/><rect x="1418" y="388" width="58" height="19" fill="#4A3A32"/><rect x="1484" y="388" width="58" height="19" fill="#4A3A32"/><rect x="1550" y="388" width="58" height="19" fill="#4A3A32"/><rect x="1616" y="388" width="58" height="19" fill="#4A3A32"/><rect x="1682" y="388" width="58" height="19" fill="#4A3A32"/><rect x="1748" y="388" width="52" height="19" fill="#5C4636"/><rect x="560" y="410" width="25" height="19" fill="#4A3A32"/><rect x="593" y="410" width="58" height="19" fill="#5C4636"/><rect x="659" y="410" width="58" height="19" fill="#4A3A32"/><rect x="725" y="410" width="58" height="19" fill="#4A3A32"/><rect x="791" y="410" width="58" height="19" fill="#5C4636"/><rect x="857" y="410" width="58" height="19" fill="#4A3A32"/><rect x="923" y="410" width="58" height="19" fill="#4A3A32"/><rect x="989" y="410" width="58" height="19" fill="#4A3A32"/><rect x="1055" y="410" width="58" height="19" fill="#523E30"/><rect x="1121" y="410" width="58" height="19" fill="#4A3A32"/><rect x="1187" y="410" width="58" height="19" fill="#4A3A32"/><rect x="1253" y="410" width="58" height="19" fill="#5C4636"/><rect x="1319" y="410" width="58" height="19" fill="#4A3A32"/><rect x="1385" y="410" width="58" height="19" fill="#5C4636"/><rect x="1451" y="410" width="58" height="19" fill="#4A3A32"/><rect x="1517" y="410" width="58" height="19" fill="#4A3A32"/><rect x="1583" y="410" width="58" height="19" fill="#5C4636"/><rect x="1649" y="410" width="58" height="19" fill="#5C4636"/><rect x="1715" y="410" width="58" height="19" fill="#4A3A32"/><rect x="1781" y="410" width="19" height="19" fill="#523E30"/><rect x="560" y="432" width="58" height="19" fill="#4A3A32"/><rect x="626" y="432" width="58" height="19" fill="#4A3A32"/><rect x="692" y="432" width="58" height="19" fill="#4A3A32"/><rect x="758" y="432" width="58" height="19" fill="#5C4636"/><rect x="824" y="432" width="58" height="19" fill="#4A3A32"/><rect x="890" y="432" width="58" height="19" fill="#5C4636"/><rect x="956" y="432" width="58" height="19" fill="#523E30"/><rect x="1022" y="432" width="58" height="19" fill="#5C4636"/><rect x="1088" y="432" width="58" height="19" fill="#4A3A32"/><rect x="1154" y="432" width="58" height="19" fill="#4A3A32"/><rect x="1220" y="432" width="58" height="19" fill="#4A3A32"/><rect x="1286" y="432" width="58" height="19" fill="#523E30"/><rect x="1352" y="432" width="58" height="19" fill="#4A3A32"/><rect x="1418" y="432" width="58" height="19" fill="#5C4636"/><rect x="1484" y="432" width="58" height="19" fill="#4A3A32"/><rect x="1550" y="432" width="58" height="19" fill="#523E30"/><rect x="1616" y="432" width="58" height="19" fill="#523E30"/><rect x="1682" y="432" width="58" height="19" fill="#523E30"/><rect x="1748" y="432" width="52" height="19" fill="#5C4636"/><rect x="560" y="454" width="25" height="19" fill="#523E30"/><rect x="593" y="454" width="58" height="19" fill="#4A3A32"/><rect x="659" y="454" width="58" height="19" fill="#4A3A32"/><rect x="725" y="454" width="58" height="19" fill="#523E30"/><rect x="791" y="454" width="58" height="19" fill="#4A3A32"/><rect x="857" y="454" width="58" height="19" fill="#4A3A32"/><rect x="923" y="454" width="58" height="19" fill="#4A3A32"/><rect x="989" y="454" width="58" height="19" fill="#523E30"/><rect x="1055" y="454" width="58" height="19" fill="#4A3A32"/><rect x="1121" y="454" width="58" height="19" fill="#4A3A32"/><rect x="1187" y="454" width="58" height="19" fill="#4A3A32"/><rect x="1253" y="454" width="58" height="19" fill="#5C4636"/><rect x="1319" y="454" width="58" height="19" fill="#523E30"/><rect x="1385" y="454" width="58" height="19" fill="#523E30"/><rect x="1451" y="454" width="58" height="19" fill="#4A3A32"/><rect x="1517" y="454" width="58" height="19" fill="#523E30"/><rect x="1583" y="454" width="58" height="19" fill="#523E30"/><rect x="1649" y="454" width="58" height="19" fill="#4A3A32"/><rect x="1715" y="454" width="58" height="19" fill="#523E30"/><rect x="1781" y="454" width="19" height="19" fill="#5C4636"/><rect x="560" y="476" width="58" height="19" fill="#4A3A32"/><rect x="626" y="476" width="58" height="19" fill="#523E30"/><rect x="692" y="476" width="58" height="19" fill="#5C4636"/><rect x="758" y="476" width="58" height="19" fill="#523E30"/><rect x="824" y="476" width="58" height="19" fill="#4A3A32"/><rect x="890" y="476" width="58" height="19" fill="#4A3A32"/><rect x="956" y="476" width="58" height="19" fill="#4A3A32"/><rect x="1022" y="476" width="58" height="19" fill="#523E30"/><rect x="1088" y="476" width="58" height="19" fill="#523E30"/><rect x="1154" y="476" width="58" height="19" fill="#4A3A32"/><rect x="1220" y="476" width="58" height="19" fill="#4A3A32"/><rect x="1286" y="476" width="58" height="19" fill="#4A3A32"/><rect x="1352" y="476" width="58" height="19" fill="#4A3A32"/><rect x="1418" y="476" width="58" height="19" fill="#523E30"/><rect x="1484" y="476" width="58" height="19" fill="#4A3A32"/><rect x="1550" y="476" width="58" height="19" fill="#4A3A32"/><rect x="1616" y="476" width="58" height="19" fill="#5C4636"/><rect x="1682" y="476" width="58" height="19" fill="#5C4636"/><rect x="1748" y="476" width="52" height="19" fill="#523E30"/><rect x="560" y="498" width="25" height="19" fill="#523E30"/><rect x="593" y="498" width="58" height="19" fill="#4A3A32"/><rect x="659" y="498" width="58" height="19" fill="#4A3A32"/><rect x="725" y="498" width="58" height="19" fill="#4A3A32"/><rect x="791" y="498" width="58" height="19" fill="#523E30"/><rect x="857" y="498" width="58" height="19" fill="#4A3A32"/><rect x="923" y="498" width="58" height="19" fill="#4A3A32"/><rect x="989" y="498" width="58" height="19" fill="#4A3A32"/><rect x="1055" y="498" width="58" height="19" fill="#4A3A32"/><rect x="1121" y="498" width="58" height="19" fill="#4A3A32"/><rect x="1187" y="498" width="58" height="19" fill="#4A3A32"/><rect x="1253" y="498" width="58" height="19" fill="#5C4636"/><rect x="1319" y="498" width="58" height="19" fill="#4A3A32"/><rect x="1385" y="498" width="58" height="19" fill="#523E30"/><rect x="1451" y="498" width="58" height="19" fill="#5C4636"/><rect x="1517" y="498" width="58" height="19" fill="#523E30"/><rect x="1583" y="498" width="58" height="19" fill="#4A3A32"/><rect x="1649" y="498" width="58" height="19" fill="#4A3A32"/><rect x="1715" y="498" width="58" height="19" fill="#4A3A32"/><rect x="1781" y="498" width="19" height="19" fill="#5C4636"/><rect x="560" y="520" width="58" height="19" fill="#4A3A32"/><rect x="626" y="520" width="58" height="19" fill="#523E30"/><rect x="692" y="520" width="58" height="19" fill="#5C4636"/><rect x="758" y="520" width="58" height="19" fill="#4A3A32"/><rect x="824" y="520" width="58" height="19" fill="#4A3A32"/><rect x="890" y="520" width="58" height="19" fill="#523E30"/><rect x="956" y="520" width="58" height="19" fill="#4A3A32"/><rect x="1022" y="520" width="58" height="19" fill="#523E30"/><rect x="1088" y="520" width="58" height="19" fill="#4A3A32"/><rect x="1154" y="520" width="58" height="19" fill="#4A3A32"/><rect x="1220" y="520" width="58" height="19" fill="#4A3A32"/><rect x="1286" y="520" width="58" height="19" fill="#4A3A32"/><rect x="1352" y="520" width="58" height="19" fill="#4A3A32"/><rect x="1418" y="520" width="58" height="19" fill="#4A3A32"/><rect x="1484" y="520" width="58" height="19" fill="#523E30"/><rect x="1550" y="520" width="58" height="19" fill="#523E30"/><rect x="1616" y="520" width="58" height="19" fill="#523E30"/><rect x="1682" y="520" width="58" height="19" fill="#523E30"/><rect x="1748" y="520" width="52" height="19" fill="#4A3A32"/><rect x="560" y="542" width="25" height="19" fill="#4A3A32"/><rect x="593" y="542" width="58" height="19" fill="#523E30"/><rect x="659" y="542" width="58" height="19" fill="#4A3A32"/><rect x="725" y="542" width="58" height="19" fill="#4A3A32"/><rect x="791" y="542" width="58" height="19" fill="#5C4636"/><rect x="857" y="542" width="58" height="19" fill="#4A3A32"/><rect x="923" y="542" width="58" height="19" fill="#5C4636"/><rect x="989" y="542" width="58" height="19" fill="#5C4636"/><rect x="1055" y="542" width="58" height="19" fill="#5C4636"/><rect x="1121" y="542" width="58" height="19" fill="#523E30"/><rect x="1187" y="542" width="58" height="19" fill="#4A3A32"/><rect x="1253" y="542" width="58" height="19" fill="#523E30"/><rect x="1319" y="542" width="58" height="19" fill="#523E30"/><rect x="1385" y="542" width="58" height="19" fill="#523E30"/><rect x="1451" y="542" width="58" height="19" fill="#4A3A32"/><rect x="1517" y="542" width="58" height="19" fill="#5C4636"/><rect x="1583" y="542" width="58" height="19" fill="#4A3A32"/><rect x="1649" y="542" width="58" height="19" fill="#4A3A32"/><rect x="1715" y="542" width="58" height="19" fill="#4A3A32"/><rect x="1781" y="542" width="19" height="19" fill="#4A3A32"/><rect x="560" y="564" width="58" height="19" fill="#523E30"/><rect x="626" y="564" width="58" height="19" fill="#5C4636"/><rect x="692" y="564" width="58" height="19" fill="#523E30"/><rect x="758" y="564" width="58" height="19" fill="#4A3A32"/><rect x="824" y="564" width="58" height="19" fill="#4A3A32"/><rect x="890" y="564" width="58" height="19" fill="#4A3A32"/><rect x="956" y="564" width="58" height="19" fill="#4A3A32"/><rect x="1022" y="564" width="58" height="19" fill="#4A3A32"/><rect x="1088" y="564" width="58" height="19" fill="#4A3A32"/><rect x="1154" y="564" width="58" height="19" fill="#4A3A32"/><rect x="1220" y="564" width="58" height="19" fill="#4A3A32"/><rect x="1286" y="564" width="58" height="19" fill="#523E30"/><rect x="1352" y="564" width="58" height="19" fill="#4A3A32"/><rect x="1418" y="564" width="58" height="19" fill="#4A3A32"/><rect x="1484" y="564" width="58" height="19" fill="#4A3A32"/><rect x="1550" y="564" width="58" height="19" fill="#4A3A32"/><rect x="1616" y="564" width="58" height="19" fill="#4A3A32"/><rect x="1682" y="564" width="58" height="19" fill="#4A3A32"/><rect x="1748" y="564" width="52" height="19" fill="#4A3A32"/><rect x="560" y="586" width="25" height="19" fill="#4A3A32"/><rect x="593" y="586" width="58" height="19" fill="#4A3A32"/><rect x="659" y="586" width="58" height="19" fill="#523E30"/><rect x="725" y="586" width="58" height="19" fill="#4A3A32"/><rect x="791" y="586" width="58" height="19" fill="#5C4636"/><rect x="857" y="586" width="58" height="19" fill="#523E30"/><rect x="923" y="586" width="58" height="19" fill="#523E30"/><rect x="989" y="586" width="58" height="19" fill="#4A3A32"/><rect x="1055" y="586" width="58" height="19" fill="#4A3A32"/><rect x="1121" y="586" width="58" height="19" fill="#4A3A32"/><rect x="1187" y="586" width="58" height="19" fill="#4A3A32"/><rect x="1253" y="586" width="58" height="19" fill="#4A3A32"/><rect x="1319" y="586" width="58" height="19" fill="#523E30"/><rect x="1385" y="586" width="58" height="19" fill="#4A3A32"/><rect x="1451" y="586" width="58" height="19" fill="#4A3A32"/><rect x="1517" y="586" width="58" height="19" fill="#4A3A32"/><rect x="1583" y="586" width="58" height="19" fill="#4A3A32"/><rect x="1649" y="586" width="58" height="19" fill="#4A3A32"/><rect x="1715" y="586" width="58" height="19" fill="#4A3A32"/><rect x="1781" y="586" width="19" height="19" fill="#4A3A32"/><rect x="560" y="608" width="58" height="19" fill="#5C4636"/><rect x="626" y="608" width="58" height="19" fill="#4A3A32"/><rect x="692" y="608" width="58" height="19" fill="#523E30"/><rect x="758" y="608" width="58" height="19" fill="#4A3A32"/><rect x="824" y="608" width="58" height="19" fill="#4A3A32"/><rect x="890" y="608" width="58" height="19" fill="#523E30"/><rect x="956" y="608" width="58" height="19" fill="#523E30"/><rect x="1022" y="608" width="58" height="19" fill="#4A3A32"/><rect x="1088" y="608" width="58" height="19" fill="#523E30"/><rect x="1154" y="608" width="58" height="19" fill="#4A3A32"/><rect x="1220" y="608" width="58" height="19" fill="#523E30"/><rect x="1286" y="608" width="58" height="19" fill="#4A3A32"/><rect x="1352" y="608" width="58" height="19" fill="#4A3A32"/><rect x="1418" y="608" width="58" height="19" fill="#5C4636"/><rect x="1484" y="608" width="58" height="19" fill="#4A3A32"/><rect x="1550" y="608" width="58" height="19" fill="#4A3A32"/><rect x="1616" y="608" width="58" height="19" fill="#4A3A32"/><rect x="1682" y="608" width="58" height="19" fill="#4A3A32"/><rect x="1748" y="608" width="52" height="19" fill="#4A3A32"/><rect x="560" y="630" width="25" height="19" fill="#4A3A32"/><rect x="593" y="630" width="58" height="19" fill="#523E30"/><rect x="659" y="630" width="58" height="19" fill="#523E30"/><rect x="725" y="630" width="58" height="19" fill="#4A3A32"/><rect x="791" y="630" width="58" height="19" fill="#523E30"/><rect x="857" y="630" width="58" height="19" fill="#523E30"/><rect x="923" y="630" width="58" height="19" fill="#4A3A32"/><rect x="989" y="630" width="58" height="19" fill="#4A3A32"/><rect x="1055" y="630" width="58" height="19" fill="#4A3A32"/><rect x="1121" y="630" width="58" height="19" fill="#4A3A32"/><rect x="1187" y="630" width="58" height="19" fill="#4A3A32"/><rect x="1253" y="630" width="58" height="19" fill="#4A3A32"/><rect x="1319" y="630" width="58" height="19" fill="#4A3A32"/><rect x="1385" y="630" width="58" height="19" fill="#5C4636"/><rect x="1451" y="630" width="58" height="19" fill="#4A3A32"/><rect x="1517" y="630" width="58" height="19" fill="#4A3A32"/><rect x="1583" y="630" width="58" height="19" fill="#5C4636"/><rect x="1649" y="630" width="58" height="19" fill="#523E30"/><rect x="1715" y="630" width="58" height="19" fill="#4A3A32"/><rect x="1781" y="630" width="19" height="19" fill="#4A3A32"/><rect x="560" y="652" width="58" height="19" fill="#4A3A32"/><rect x="626" y="652" width="58" height="19" fill="#5C4636"/><rect x="692" y="652" width="58" height="19" fill="#4A3A32"/><rect x="758" y="652" width="58" height="19" fill="#4A3A32"/><rect x="824" y="652" width="58" height="19" fill="#4A3A32"/><rect x="890" y="652" width="58" height="19" fill="#5C4636"/><rect x="956" y="652" width="58" height="19" fill="#4A3A32"/><rect x="1022" y="652" width="58" height="19" fill="#5C4636"/><rect x="1088" y="652" width="58" height="19" fill="#4A3A32"/><rect x="1154" y="652" width="58" height="19" fill="#5C4636"/><rect x="1220" y="652" width="58" height="19" fill="#4A3A32"/><rect x="1286" y="652" width="58" height="19" fill="#5C4636"/><rect x="1352" y="652" width="58" height="19" fill="#5C4636"/><rect x="1418" y="652" width="58" height="19" fill="#523E30"/><rect x="1484" y="652" width="58" height="19" fill="#523E30"/><rect x="1550" y="652" width="58" height="19" fill="#523E30"/><rect x="1616" y="652" width="58" height="19" fill="#4A3A32"/><rect x="1682" y="652" width="58" height="19" fill="#4A3A32"/><rect x="1748" y="652" width="52" height="19" fill="#523E30"/><rect x="560" y="674" width="25" height="19" fill="#4A3A32"/><rect x="593" y="674" width="58" height="19" fill="#4A3A32"/><rect x="659" y="674" width="58" height="19" fill="#523E30"/><rect x="725" y="674" width="58" height="19" fill="#523E30"/><rect x="791" y="674" width="58" height="19" fill="#4A3A32"/><rect x="857" y="674" width="58" height="19" fill="#4A3A32"/><rect x="923" y="674" width="58" height="19" fill="#4A3A32"/><rect x="989" y="674" width="58" height="19" fill="#4A3A32"/><rect x="1055" y="674" width="58" height="19" fill="#523E30"/><rect x="1121" y="674" width="58" height="19" fill="#4A3A32"/><rect x="1187" y="674" width="58" height="19" fill="#4A3A32"/><rect x="1253" y="674" width="58" height="19" fill="#4A3A32"/><rect x="1319" y="674" width="58" height="19" fill="#523E30"/><rect x="1385" y="674" width="58" height="19" fill="#523E30"/><rect x="1451" y="674" width="58" height="19" fill="#523E30"/><rect x="1517" y="674" width="58" height="19" fill="#523E30"/><rect x="1583" y="674" width="58" height="19" fill="#4A3A32"/><rect x="1649" y="674" width="58" height="19" fill="#5C4636"/><rect x="1715" y="674" width="58" height="19" fill="#5C4636"/><rect x="1781" y="674" width="19" height="19" fill="#523E30"/><rect x="560" y="696" width="58" height="19" fill="#4A3A32"/><rect x="626" y="696" width="58" height="19" fill="#5C4636"/><rect x="692" y="696" width="58" height="19" fill="#4A3A32"/><rect x="758" y="696" width="58" height="19" fill="#523E30"/><rect x="824" y="696" width="58" height="19" fill="#4A3A32"/><rect x="890" y="696" width="58" height="19" fill="#5C4636"/><rect x="956" y="696" width="58" height="19" fill="#4A3A32"/><rect x="1022" y="696" width="58" height="19" fill="#4A3A32"/><rect x="1088" y="696" width="58" height="19" fill="#4A3A32"/><rect x="1154" y="696" width="58" height="19" fill="#4A3A32"/><rect x="1220" y="696" width="58" height="19" fill="#523E30"/><rect x="1286" y="696" width="58" height="19" fill="#4A3A32"/><rect x="1352" y="696" width="58" height="19" fill="#4A3A32"/><rect x="1418" y="696" width="58" height="19" fill="#523E30"/><rect x="1484" y="696" width="58" height="19" fill="#5C4636"/><rect x="1550" y="696" width="58" height="19" fill="#4A3A32"/><rect x="1616" y="696" width="58" height="19" fill="#4A3A32"/><rect x="1682" y="696" width="58" height="19" fill="#4A3A32"/><rect x="1748" y="696" width="52" height="19" fill="#5C4636"/><rect x="560" y="718" width="25" height="19" fill="#523E30"/><rect x="593" y="718" width="58" height="19" fill="#4A3A32"/><rect x="659" y="718" width="58" height="19" fill="#4A3A32"/><rect x="725" y="718" width="58" height="19" fill="#4A3A32"/><rect x="791" y="718" width="58" height="19" fill="#5C4636"/><rect x="857" y="718" width="58" height="19" fill="#4A3A32"/><rect x="923" y="718" width="58" height="19" fill="#5C4636"/><rect x="989" y="718" width="58" height="19" fill="#523E30"/><rect x="1055" y="718" width="58" height="19" fill="#4A3A32"/><rect x="1121" y="718" width="58" height="19" fill="#4A3A32"/><rect x="1187" y="718" width="58" height="19" fill="#4A3A32"/><rect x="1253" y="718" width="58" height="19" fill="#5C4636"/><rect x="1319" y="718" width="58" height="19" fill="#523E30"/><rect x="1385" y="718" width="58" height="19" fill="#5C4636"/><rect x="1451" y="718" width="58" height="19" fill="#523E30"/><rect x="1517" y="718" width="58" height="19" fill="#523E30"/><rect x="1583" y="718" width="58" height="19" fill="#5C4636"/><rect x="1649" y="718" width="58" height="19" fill="#4A3A32"/><rect x="1715" y="718" width="58" height="19" fill="#4A3A32"/><rect x="1781" y="718" width="19" height="19" fill="#523E30"/><rect x="560" y="740" width="58" height="19" fill="#4A3A32"/><rect x="626" y="740" width="58" height="19" fill="#4A3A32"/><rect x="692" y="740" width="58" height="19" fill="#5C4636"/><rect x="758" y="740" width="58" height="19" fill="#4A3A32"/><rect x="824" y="740" width="58" height="19" fill="#4A3A32"/><rect x="890" y="740" width="58" height="19" fill="#4A3A32"/><rect x="956" y="740" width="58" height="19" fill="#4A3A32"/><rect x="1022" y="740" width="58" height="19" fill="#523E30"/><rect x="1088" y="740" width="58" height="19" fill="#4A3A32"/><rect x="1154" y="740" width="58" height="19" fill="#4A3A32"/><rect x="1220" y="740" width="58" height="19" fill="#4A3A32"/><rect x="1286" y="740" width="58" height="19" fill="#4A3A32"/><rect x="1352" y="740" width="58" height="19" fill="#523E30"/><rect x="1418" y="740" width="58" height="19" fill="#4A3A32"/><rect x="1484" y="740" width="58" height="19" fill="#4A3A32"/><rect x="1550" y="740" width="58" height="19" fill="#523E30"/><rect x="1616" y="740" width="58" height="19" fill="#523E30"/><rect x="1682" y="740" width="58" height="19" fill="#4A3A32"/><rect x="1748" y="740" width="52" height="19" fill="#523E30"/><rect x="560" y="762" width="25" height="19" fill="#4A3A32"/><rect x="593" y="762" width="58" height="19" fill="#523E30"/><rect x="659" y="762" width="58" height="19" fill="#523E30"/><rect x="725" y="762" width="58" height="19" fill="#4A3A32"/><rect x="791" y="762" width="58" height="19" fill="#5C4636"/><rect x="857" y="762" width="58" height="19" fill="#523E30"/><rect x="923" y="762" width="58" height="19" fill="#4A3A32"/><rect x="989" y="762" width="58" height="19" fill="#523E30"/><rect x="1055" y="762" width="58" height="19" fill="#4A3A32"/><rect x="1121" y="762" width="58" height="19" fill="#4A3A32"/><rect x="1187" y="762" width="58" height="19" fill="#4A3A32"/><rect x="1253" y="762" width="58" height="19" fill="#4A3A32"/><rect x="1319" y="762" width="58" height="19" fill="#4A3A32"/><rect x="1385" y="762" width="58" height="19" fill="#4A3A32"/><rect x="1451" y="762" width="58" height="19" fill="#4A3A32"/><rect x="1517" y="762" width="58" height="19" fill="#523E30"/><rect x="1583" y="762" width="58" height="19" fill="#4A3A32"/><rect x="1649" y="762" width="58" height="19" fill="#523E30"/><rect x="1715" y="762" width="58" height="19" fill="#4A3A32"/><rect x="1781" y="762" width="19" height="19" fill="#523E30"/><rect x="560" y="784" width="58" height="19" fill="#4A3A32"/><rect x="626" y="784" width="58" height="19" fill="#5C4636"/><rect x="692" y="784" width="58" height="19" fill="#5C4636"/><rect x="758" y="784" width="58" height="19" fill="#523E30"/><rect x="824" y="784" width="58" height="19" fill="#5C4636"/><rect x="890" y="784" width="58" height="19" fill="#4A3A32"/><rect x="956" y="784" width="58" height="19" fill="#4A3A32"/><rect x="1022" y="784" width="58" height="19" fill="#523E30"/><rect x="1088" y="784" width="58" height="19" fill="#523E30"/><rect x="1154" y="784" width="58" height="19" fill="#4A3A32"/><rect x="1220" y="784" width="58" height="19" fill="#4A3A32"/><rect x="1286" y="784" width="58" height="19" fill="#4A3A32"/><rect x="1352" y="784" width="58" height="19" fill="#523E30"/><rect x="1418" y="784" width="58" height="19" fill="#4A3A32"/><rect x="1484" y="784" width="58" height="19" fill="#5C4636"/><rect x="1550" y="784" width="58" height="19" fill="#4A3A32"/><rect x="1616" y="784" width="58" height="19" fill="#4A3A32"/><rect x="1682" y="784" width="58" height="19" fill="#523E30"/><rect x="1748" y="784" width="52" height="19" fill="#523E30"/><rect x="560" y="806" width="25" height="19" fill="#4A3A32"/><rect x="593" y="806" width="58" height="19" fill="#4A3A32"/><rect x="659" y="806" width="58" height="19" fill="#4A3A32"/><rect x="725" y="806" width="58" height="19" fill="#4A3A32"/><rect x="791" y="806" width="58" height="19" fill="#523E30"/><rect x="857" y="806" width="58" height="19" fill="#4A3A32"/><rect x="923" y="806" width="58" height="19" fill="#4A3A32"/><rect x="989" y="806" width="58" height="19" fill="#4A3A32"/><rect x="1055" y="806" width="58" height="19" fill="#523E30"/><rect x="1121" y="806" width="58" height="19" fill="#4A3A32"/><rect x="1187" y="806" width="58" height="19" fill="#4A3A32"/><rect x="1253" y="806" width="58" height="19" fill="#4A3A32"/><rect x="1319" y="806" width="58" height="19" fill="#4A3A32"/><rect x="1385" y="806" width="58" height="19" fill="#4A3A32"/><rect x="1451" y="806" width="58" height="19" fill="#4A3A32"/><rect x="1517" y="806" width="58" height="19" fill="#523E30"/><rect x="1583" y="806" width="58" height="19" fill="#4A3A32"/><rect x="1649" y="806" width="58" height="19" fill="#4A3A32"/><rect x="1715" y="806" width="58" height="19" fill="#523E30"/><rect x="1781" y="806" width="19" height="19" fill="#523E30"/><rect x="560" y="828" width="58" height="19" fill="#5C4636"/><rect x="626" y="828" width="58" height="19" fill="#5C4636"/><rect x="692" y="828" width="58" height="19" fill="#4A3A32"/><rect x="758" y="828" width="58" height="19" fill="#5C4636"/><rect x="824" y="828" width="58" height="19" fill="#4A3A32"/><rect x="890" y="828" width="58" height="19" fill="#4A3A32"/><rect x="956" y="828" width="58" height="19" fill="#523E30"/><rect x="1022" y="828" width="58" height="19" fill="#4A3A32"/><rect x="1088" y="828" width="58" height="19" fill="#523E30"/><rect x="1154" y="828" width="58" height="19" fill="#4A3A32"/><rect x="1220" y="828" width="58" height="19" fill="#523E30"/><rect x="1286" y="828" width="58" height="19" fill="#523E30"/><rect x="1352" y="828" width="58" height="19" fill="#4A3A32"/><rect x="1418" y="828" width="58" height="19" fill="#523E30"/><rect x="1484" y="828" width="58" height="19" fill="#4A3A32"/><rect x="1550" y="828" width="58" height="19" fill="#5C4636"/><rect x="1616" y="828" width="58" height="19" fill="#4A3A32"/><rect x="1682" y="828" width="58" height="19" fill="#523E30"/><rect x="1748" y="828" width="52" height="19" fill="#4A3A32"/><rect x="560" y="850" width="25" height="19" fill="#523E30"/><rect x="593" y="850" width="58" height="19" fill="#4A3A32"/><rect x="659" y="850" width="58" height="19" fill="#4A3A32"/><rect x="725" y="850" width="58" height="19" fill="#523E30"/><rect x="791" y="850" width="58" height="19" fill="#4A3A32"/><rect x="857" y="850" width="58" height="19" fill="#523E30"/><rect x="923" y="850" width="58" height="19" fill="#4A3A32"/><rect x="989" y="850" width="58" height="19" fill="#523E30"/><rect x="1055" y="850" width="58" height="19" fill="#523E30"/><rect x="1121" y="850" width="58" height="19" fill="#4A3A32"/><rect x="1187" y="850" width="58" height="19" fill="#5C4636"/><rect x="1253" y="850" width="58" height="19" fill="#5C4636"/><rect x="1319" y="850" width="58" height="19" fill="#523E30"/><rect x="1385" y="850" width="58" height="19" fill="#5C4636"/><rect x="1451" y="850" width="58" height="19" fill="#4A3A32"/><rect x="1517" y="850" width="58" height="19" fill="#5C4636"/><rect x="1583" y="850" width="58" height="19" fill="#523E30"/><rect x="1649" y="850" width="58" height="19" fill="#5C4636"/><rect x="1715" y="850" width="58" height="19" fill="#4A3A32"/><rect x="1781" y="850" width="19" height="19" fill="#5C4636"/><rect x="560" y="872" width="58" height="19" fill="#523E30"/><rect x="626" y="872" width="58" height="19" fill="#5C4636"/><rect x="692" y="872" width="58" height="19" fill="#5C4636"/><rect x="758" y="872" width="58" height="19" fill="#4A3A32"/><rect x="824" y="872" width="58" height="19" fill="#4A3A32"/><rect x="890" y="872" width="58" height="19" fill="#4A3A32"/><rect x="956" y="872" width="58" height="19" fill="#4A3A32"/><rect x="1022" y="872" width="58" height="19" fill="#4A3A32"/><rect x="1088" y="872" width="58" height="19" fill="#5C4636"/><rect x="1154" y="872" width="58" height="19" fill="#4A3A32"/><rect x="1220" y="872" width="58" height="19" fill="#5C4636"/><rect x="1286" y="872" width="58" height="19" fill="#4A3A32"/><rect x="1352" y="872" width="58" height="19" fill="#4A3A32"/><rect x="1418" y="872" width="58" height="19" fill="#5C4636"/><rect x="1484" y="872" width="58" height="19" fill="#4A3A32"/><rect x="1550" y="872" width="58" height="19" fill="#4A3A32"/><rect x="1616" y="872" width="58" height="19" fill="#523E30"/><rect x="1682" y="872" width="58" height="19" fill="#4A3A32"/><rect x="1748" y="872" width="52" height="19" fill="#4A3A32"/><rect x="560" y="894" width="25" height="19" fill="#523E30"/><rect x="593" y="894" width="58" height="19" fill="#4A3A32"/><rect x="659" y="894" width="58" height="19" fill="#5C4636"/><rect x="725" y="894" width="58" height="19" fill="#4A3A32"/><rect x="791" y="894" width="58" height="19" fill="#4A3A32"/><rect x="857" y="894" width="58" height="19" fill="#4A3A32"/><rect x="923" y="894" width="58" height="19" fill="#4A3A32"/><rect x="989" y="894" width="58" height="19" fill="#4A3A32"/><rect x="1055" y="894" width="58" height="19" fill="#523E30"/><rect x="1121" y="894" width="58" height="19" fill="#4A3A32"/><rect x="1187" y="894" width="58" height="19" fill="#4A3A32"/><rect x="1253" y="894" width="58" height="19" fill="#5C4636"/><rect x="1319" y="894" width="58" height="19" fill="#4A3A32"/><rect x="1385" y="894" width="58" height="19" fill="#523E30"/><rect x="1451" y="894" width="58" height="19" fill="#523E30"/><rect x="1517" y="894" width="58" height="19" fill="#4A3A32"/><rect x="1583" y="894" width="58" height="19" fill="#523E30"/><rect x="1649" y="894" width="58" height="19" fill="#4A3A32"/><rect x="1715" y="894" width="58" height="19" fill="#5C4636"/><rect x="1781" y="894" width="19" height="19" fill="#4A3A32"/><rect x="560" y="916" width="58" height="19" fill="#4A3A32"/><rect x="626" y="916" width="58" height="19" fill="#4A3A32"/><rect x="692" y="916" width="58" height="19" fill="#4A3A32"/><rect x="758" y="916" width="58" height="19" fill="#4A3A32"/><rect x="824" y="916" width="58" height="19" fill="#4A3A32"/><rect x="890" y="916" width="58" height="19" fill="#523E30"/><rect x="956" y="916" width="58" height="19" fill="#523E30"/><rect x="1022" y="916" width="58" height="19" fill="#5C4636"/><rect x="1088" y="916" width="58" height="19" fill="#4A3A32"/><rect x="1154" y="916" width="58" height="19" fill="#5C4636"/><rect x="1220" y="916" width="58" height="19" fill="#4A3A32"/><rect x="1286" y="916" width="58" height="19" fill="#523E30"/><rect x="1352" y="916" width="58" height="19" fill="#4A3A32"/><rect x="1418" y="916" width="58" height="19" fill="#5C4636"/><rect x="1484" y="916" width="58" height="19" fill="#4A3A32"/><rect x="1550" y="916" width="58" height="19" fill="#4A3A32"/><rect x="1616" y="916" width="58" height="19" fill="#4A3A32"/><rect x="1682" y="916" width="58" height="19" fill="#4A3A32"/><rect x="1748" y="916" width="52" height="19" fill="#4A3A32"/><rect x="1162.08" y="438.63" width="4.59" height="348.32" fill="#8A8578" opacity="0.14"/><rect x="861.91" y="330.41" width="4.01" height="307.86" fill="#8A8578" opacity="0.16"/><rect x="708.15" y="311.58" width="7.08" height="413.33" fill="#8A8578" opacity="0.11"/><rect x="1340.5" y="524.7" width="5.63" height="303.28" fill="#8A8578" opacity="0.16"/><rect x="905.42" y="497.26" width="5.22" height="283.6" fill="#8A8578" opacity="0.13"/><rect x="1120" y="380" width="680" height="540" fill="#575D3F"/><ellipse cx="1707.86" cy="667.57" rx="30.33" ry="6.63" fill="#61674A" opacity="0.53"/><ellipse cx="1128.68" cy="650.68" rx="42.71" ry="13.23" fill="#61674A" opacity="0.32"/><ellipse cx="1294.06" cy="495.04" rx="38.05" ry="20.41" fill="#61674A" opacity="0.35"/><ellipse cx="1224.49" cy="644.5" rx="27.36" ry="18.77" fill="#61674A" opacity="0.35"/><ellipse cx="1176.61" cy="502.6" rx="44.84" ry="7.53" fill="#61674A" opacity="0.47"/><ellipse cx="1137.57" cy="568.93" rx="23.39" ry="21.71" fill="#61674A" opacity="0.49"/><ellipse cx="1207.46" cy="721.96" rx="25.81" ry="21.89" fill="#61674A" opacity="0.51"/><ellipse cx="1408.58" cy="716.73" rx="27.83" ry="23.97" fill="#61674A" opacity="0.53"/><ellipse cx="1574.42" cy="661.92" rx="27.81" ry="22.78" fill="#61674A" opacity="0.28"/><ellipse cx="1670.76" cy="779.24" rx="48.59" ry="10.86" fill="#61674A" opacity="0.42"/><ellipse cx="1287.74" cy="797.44" rx="27.05" ry="22.82" fill="#61674A" opacity="0.27"/><ellipse cx="1268.82" cy="500.75" rx="22.63" ry="9.92" fill="#61674A" opacity="0.51"/><ellipse cx="1171.63" cy="430.99" rx="17.76" ry="7.07" fill="#61674A" opacity="0.4"/><ellipse cx="1236.04" cy="410.31" rx="24.59" ry="7.64" fill="#61674A" opacity="0.32"/><ellipse cx="1531.39" cy="897.07" rx="21.14" ry="12.49" fill="#61674A" opacity="0.36"/><ellipse cx="1270.54" cy="760.55" rx="23.07" ry="7.87" fill="#61674A" opacity="0.26"/><ellipse cx="1712.39" cy="776.37" rx="43.22" ry="7.51" fill="#61674A" opacity="0.46"/><ellipse cx="1620.75" cy="716.76" rx="25.36" ry="8.12" fill="#61674A" opacity="0.49"/><ellipse cx="1441.69" cy="381.7" rx="45.73" ry="18.6" fill="#61674A" opacity="0.49"/><ellipse cx="1308.46" cy="396.11" rx="30.95" ry="15.3" fill="#61674A" opacity="0.27"/><ellipse cx="1160.69" cy="749.69" rx="21.65" ry="22.2" fill="#61674A" opacity="0.48"/><ellipse cx="1404.75" cy="884.47" rx="17.39" ry="20.31" fill="#61674A" opacity="0.43"/><ellipse cx="1252.05" cy="735.28" rx="45.09" ry="23.49" fill="#61674A" opacity="0.32"/><ellipse cx="1700.42" cy="790.82" rx="26.78" ry="8.67" fill="#61674A" opacity="0.51"/><ellipse cx="1597.09" cy="775.4" rx="27.32" ry="13.55" fill="#61674A" opacity="0.47"/><ellipse cx="1774.44" cy="486.81" rx="26.3" ry="16.46" fill="#61674A" opacity="0.28"/><rect x="1120" y="380" width="680" height="540" fill="#000" opacity="0.06"/><rect x="0" y="920" width="1800" height="280" fill="#2A2721"/><rect x="120" y="960" width="1560" height="200" fill="#33302A"/><rect x="120" y="952" width="1560" height="10" fill="#3E3A33"/><rect x="240" y="820" width="120" height="132" fill="#2A2418"/><rect x="240" y="812" width="120" height="10" fill="#171410"/><rect x="620" y="820" width="120" height="132" fill="#2A2418"/><rect x="620" y="812" width="120" height="10" fill="#171410"/><rect x="1000" y="820" width="120" height="132" fill="#2A2418"/><rect x="1000" y="812" width="120" height="10" fill="#171410"/><rect x="1380" y="820" width="120" height="132" fill="#2A2418"/><rect x="1380" y="812" width="120" height="10" fill="#171410"/><path d="M120 1100 L98.82 1095.69 L76.99 1091.37 L53.93 1087.06 L29.2 1082.75 L2.56 1078.43 L-26.01 1074.12 L-56.29 1069.8" stroke="#243018" stroke-width="9.5" fill="none"/><line x1="76.99" y1="1091.37" x2="53.35" y2="1079.55" stroke="#243018" stroke-width="5.7"/><line x1="76.99" y1="1091.37" x2="100.64" y2="1079.55" stroke="#243018" stroke-width="5.7"/><line x1="53.93" y1="1087.06" x2="33.66" y2="1076.93" stroke="#243018" stroke-width="5.7"/><line x1="53.93" y1="1087.06" x2="74.19" y2="1076.93" stroke="#243018" stroke-width="5.7"/><line x1="29.2" y1="1082.75" x2="12.31" y2="1074.3" stroke="#243018" stroke-width="5.7"/><line x1="29.2" y1="1082.75" x2="46.09" y2="1074.3" stroke="#243018" stroke-width="5.7"/><line x1="2.56" y1="1078.43" x2="-10.95" y2="1071.68" stroke="#243018" stroke-width="5.7"/><line x1="2.56" y1="1078.43" x2="16.07" y2="1071.68" stroke="#243018" stroke-width="5.7"/><line x1="-26.01" y1="1074.12" x2="-36.14" y2="1069.05" stroke="#243018" stroke-width="5.7"/><line x1="-26.01" y1="1074.12" x2="-15.87" y2="1069.05" stroke="#243018" stroke-width="5.7"/><line x1="-56.29" y1="1069.8" x2="-63.05" y2="1066.43" stroke="#243018" stroke-width="5.7"/><line x1="-56.29" y1="1069.8" x2="-49.54" y2="1066.43" stroke="#243018" stroke-width="5.7"/><path d="M120 1100 L101.4 1087.75 L82.14 1075.51 L61.65 1063.26 L39.5 1051.02 L15.43 1038.77 L-10.56 1026.52 L-38.27 1014.28" stroke="#243018" stroke-width="9.5" fill="none"/><line x1="82.14" y1="1075.51" x2="58.5" y2="1063.69" stroke="#243018" stroke-width="5.7"/><line x1="82.14" y1="1075.51" x2="105.79" y2="1063.69" stroke="#243018" stroke-width="5.7"/><line x1="61.65" y1="1063.26" x2="41.39" y2="1053.13" stroke="#243018" stroke-width="5.7"/><line x1="61.65" y1="1063.26" x2="81.92" y2="1053.13" stroke="#243018" stroke-width="5.7"/><line x1="39.5" y1="1051.02" x2="22.61" y2="1042.57" stroke="#243018" stroke-width="5.7"/><line x1="39.5" y1="1051.02" x2="56.38" y2="1042.57" stroke="#243018" stroke-width="5.7"/><line x1="15.43" y1="1038.77" x2="1.92" y2="1032.01" stroke="#243018" stroke-width="5.7"/><line x1="15.43" y1="1038.77" x2="28.94" y2="1032.01" stroke="#243018" stroke-width="5.7"/><line x1="-10.56" y1="1026.52" x2="-20.69" y2="1021.46" stroke="#243018" stroke-width="5.7"/><line x1="-10.56" y1="1026.52" x2="-0.42" y2="1021.46" stroke="#243018" stroke-width="5.7"/><line x1="-38.27" y1="1014.28" x2="-45.02" y2="1010.9" stroke="#243018" stroke-width="5.7"/><line x1="-38.27" y1="1014.28" x2="-31.51" y2="1010.9" stroke="#243018" stroke-width="5.7"/><path d="M120 1100 L110.29 1077.6 L99.92 1055.21 L88.32 1032.81 L75.05 1010.42 L59.88 988.02 L42.77 965.62 L23.95 943.23" stroke="#243018" stroke-width="9.5" fill="none"/><line x1="99.92" y1="1055.21" x2="76.27" y2="1043.39" stroke="#243018" stroke-width="5.7"/><line x1="99.92" y1="1055.21" x2="123.56" y2="1043.39" stroke="#243018" stroke-width="5.7"/><line x1="88.32" y1="1032.81" x2="68.05" y2="1022.68" stroke="#243018" stroke-width="5.7"/><line x1="88.32" y1="1032.81" x2="108.58" y2="1022.68" stroke="#243018" stroke-width="5.7"/><line x1="75.05" y1="1010.42" x2="58.16" y2="1001.97" stroke="#243018" stroke-width="5.7"/><line x1="75.05" y1="1010.42" x2="91.94" y2="1001.97" stroke="#243018" stroke-width="5.7"/><line x1="59.88" y1="988.02" x2="46.36" y2="981.26" stroke="#243018" stroke-width="5.7"/><line x1="59.88" y1="988.02" x2="73.39" y2="981.26" stroke="#243018" stroke-width="5.7"/><line x1="42.77" y1="965.62" x2="32.64" y2="960.56" stroke="#243018" stroke-width="5.7"/><line x1="42.77" y1="965.62" x2="52.91" y2="960.56" stroke="#243018" stroke-width="5.7"/><line x1="23.95" y1="943.23" x2="17.2" y2="939.85" stroke="#243018" stroke-width="5.7"/><line x1="23.95" y1="943.23" x2="30.71" y2="939.85" stroke="#243018" stroke-width="5.7"/><path d="M120 1100 L119.06 1073.66 L117.46 1047.33 L114.62 1020.99 L110.13 994.65 L103.72 968.32 L95.39 941.98 L85.33 915.64" stroke="#243018" stroke-width="9.5" fill="none"/><line x1="117.46" y1="1047.33" x2="93.81" y2="1035.5" stroke="#243018" stroke-width="5.7"/><line x1="117.46" y1="1047.33" x2="141.1" y2="1035.5" stroke="#243018" stroke-width="5.7"/><line x1="114.62" y1="1020.99" x2="94.36" y2="1010.86" stroke="#243018" stroke-width="5.7"/><line x1="114.62" y1="1020.99" x2="134.89" y2="1010.86" stroke="#243018" stroke-width="5.7"/><line x1="110.13" y1="994.65" x2="93.24" y2="986.21" stroke="#243018" stroke-width="5.7"/><line x1="110.13" y1="994.65" x2="127.02" y2="986.21" stroke="#243018" stroke-width="5.7"/><line x1="103.72" y1="968.32" x2="90.21" y2="961.56" stroke="#243018" stroke-width="5.7"/><line x1="103.72" y1="968.32" x2="117.23" y2="961.56" stroke="#243018" stroke-width="5.7"/><line x1="95.39" y1="941.98" x2="85.25" y2="936.91" stroke="#243018" stroke-width="5.7"/><line x1="95.39" y1="941.98" x2="105.52" y2="936.91" stroke="#243018" stroke-width="5.7"/><line x1="85.33" y1="915.64" x2="78.58" y2="912.26" stroke="#243018" stroke-width="5.7"/><line x1="85.33" y1="915.64" x2="92.09" y2="912.26" stroke="#243018" stroke-width="5.7"/><path d="M120 1100 L133.19 1073.94 L145.73 1047.87 L157.04 1021.81 L166.68 995.74 L174.42 969.68 L180.22 943.61 L184.31 917.55" stroke="#243018" stroke-width="9.5" fill="none"/><line x1="145.73" y1="1047.87" x2="122.09" y2="1036.05" stroke="#243018" stroke-width="5.7"/><line x1="145.73" y1="1047.87" x2="169.38" y2="1036.05" stroke="#243018" stroke-width="5.7"/><line x1="157.04" y1="1021.81" x2="136.78" y2="1011.67" stroke="#243018" stroke-width="5.7"/><line x1="157.04" y1="1021.81" x2="177.31" y2="1011.67" stroke="#243018" stroke-width="5.7"/><line x1="166.68" y1="995.74" x2="149.79" y2="987.3" stroke="#243018" stroke-width="5.7"/><line x1="166.68" y1="995.74" x2="183.57" y2="987.3" stroke="#243018" stroke-width="5.7"/><line x1="174.42" y1="969.68" x2="160.91" y2="962.92" stroke="#243018" stroke-width="5.7"/><line x1="174.42" y1="969.68" x2="187.93" y2="962.92" stroke="#243018" stroke-width="5.7"/><line x1="180.22" y1="943.61" x2="170.09" y2="938.54" stroke="#243018" stroke-width="5.7"/><line x1="180.22" y1="943.61" x2="190.36" y2="938.54" stroke="#243018" stroke-width="5.7"/><line x1="184.31" y1="917.55" x2="177.55" y2="914.17" stroke="#243018" stroke-width="5.7"/><line x1="184.31" y1="917.55" x2="191.06" y2="914.17" stroke="#243018" stroke-width="5.7"/><path d="M120 1100 L142.18 1078.5 L163.71 1056.99 L184.01 1035.49 L202.64 1013.98 L219.36 992.48 L234.15 970.97 L247.23 949.47" stroke="#243018" stroke-width="9.5" fill="none"/><line x1="163.71" y1="1056.99" x2="140.07" y2="1045.17" stroke="#243018" stroke-width="5.7"/><line x1="163.71" y1="1056.99" x2="187.36" y2="1045.17" stroke="#243018" stroke-width="5.7"/><line x1="184.01" y1="1035.49" x2="163.74" y2="1025.35" stroke="#243018" stroke-width="5.7"/><line x1="184.01" y1="1035.49" x2="204.27" y2="1025.35" stroke="#243018" stroke-width="5.7"/><line x1="202.64" y1="1013.98" x2="185.75" y2="1005.54" stroke="#243018" stroke-width="5.7"/><line x1="202.64" y1="1013.98" x2="219.53" y2="1005.54" stroke="#243018" stroke-width="5.7"/><line x1="219.36" y1="992.48" x2="205.85" y2="985.72" stroke="#243018" stroke-width="5.7"/><line x1="219.36" y1="992.48" x2="232.87" y2="985.72" stroke="#243018" stroke-width="5.7"/><line x1="234.15" y1="970.97" x2="224.02" y2="965.91" stroke="#243018" stroke-width="5.7"/><line x1="234.15" y1="970.97" x2="244.29" y2="965.91" stroke="#243018" stroke-width="5.7"/><line x1="247.23" y1="949.47" x2="240.47" y2="946.09" stroke="#243018" stroke-width="5.7"/><line x1="247.23" y1="949.47" x2="253.98" y2="946.09" stroke="#243018" stroke-width="5.7"/><path d="M120 1100 L147.71 1084.23 L174.77 1068.47 L200.6 1052.7 L224.76 1036.93 L247.02 1021.16 L267.34 1005.4 L285.95 989.63" stroke="#243018" stroke-width="9.5" fill="none"/><line x1="174.77" y1="1068.47" x2="151.13" y2="1056.64" stroke="#243018" stroke-width="5.7"/><line x1="174.77" y1="1068.47" x2="198.42" y2="1056.64" stroke="#243018" stroke-width="5.7"/><line x1="200.6" y1="1052.7" x2="180.34" y2="1042.56" stroke="#243018" stroke-width="5.7"/><line x1="200.6" y1="1052.7" x2="220.87" y2="1042.56" stroke="#243018" stroke-width="5.7"/><line x1="224.76" y1="1036.93" x2="207.87" y2="1028.49" stroke="#243018" stroke-width="5.7"/><line x1="224.76" y1="1036.93" x2="241.65" y2="1028.49" stroke="#243018" stroke-width="5.7"/><line x1="247.02" y1="1021.16" x2="233.51" y2="1014.41" stroke="#243018" stroke-width="5.7"/><line x1="247.02" y1="1021.16" x2="260.53" y2="1014.41" stroke="#243018" stroke-width="5.7"/><line x1="267.34" y1="1005.4" x2="257.21" y2="1000.33" stroke="#243018" stroke-width="5.7"/><line x1="267.34" y1="1005.4" x2="277.48" y2="1000.33" stroke="#243018" stroke-width="5.7"/><line x1="285.95" y1="989.63" x2="279.19" y2="986.25" stroke="#243018" stroke-width="5.7"/><line x1="285.95" y1="989.63" x2="292.7" y2="986.25" stroke="#243018" stroke-width="5.7"/><path d="M120 1100 L152.74 1098.82 L184.82 1097.64 L215.67 1096.46 L244.86 1095.28 L272.13 1094.1 L297.48 1092.92 L321.11 1091.74" stroke="#243018" stroke-width="9.5" fill="none"/><line x1="184.82" y1="1097.64" x2="161.18" y2="1085.82" stroke="#243018" stroke-width="5.7"/><line x1="184.82" y1="1097.64" x2="208.47" y2="1085.82" stroke="#243018" stroke-width="5.7"/><line x1="215.67" y1="1096.46" x2="195.41" y2="1086.33" stroke="#243018" stroke-width="5.7"/><line x1="215.67" y1="1096.46" x2="235.94" y2="1086.33" stroke="#243018" stroke-width="5.7"/><line x1="244.86" y1="1095.28" x2="227.97" y2="1086.84" stroke="#243018" stroke-width="5.7"/><line x1="244.86" y1="1095.28" x2="261.75" y2="1086.84" stroke="#243018" stroke-width="5.7"/><line x1="272.13" y1="1094.1" x2="258.62" y2="1087.35" stroke="#243018" stroke-width="5.7"/><line x1="272.13" y1="1094.1" x2="285.65" y2="1087.35" stroke="#243018" stroke-width="5.7"/><line x1="297.48" y1="1092.92" x2="287.35" y2="1087.86" stroke="#243018" stroke-width="5.7"/><line x1="297.48" y1="1092.92" x2="307.62" y2="1087.86" stroke="#243018" stroke-width="5.7"/><line x1="321.11" y1="1091.74" x2="314.36" y2="1088.37" stroke="#243018" stroke-width="5.7"/><line x1="321.11" y1="1091.74" x2="327.87" y2="1088.37" stroke="#243018" stroke-width="5.7"/><path d="M460 1120 L443.05 1118.6 L425.59 1117.19 L407.16 1115.79 L387.41 1114.39 L366.15 1112.99 L343.37 1111.58 L319.24 1110.18" stroke="#28351D" stroke-width="7.5" fill="none"/><line x1="425.59" y1="1117.19" x2="406.93" y2="1107.86" stroke="#28351D" stroke-width="4.5"/><line x1="425.59" y1="1117.19" x2="444.26" y2="1107.86" stroke="#28351D" stroke-width="4.5"/><line x1="407.16" y1="1115.79" x2="391.16" y2="1107.79" stroke="#28351D" stroke-width="4.5"/><line x1="407.16" y1="1115.79" x2="423.16" y2="1107.79" stroke="#28351D" stroke-width="4.5"/><line x1="387.41" y1="1114.39" x2="374.07" y2="1107.72" stroke="#28351D" stroke-width="4.5"/><line x1="387.41" y1="1114.39" x2="400.74" y2="1107.72" stroke="#28351D" stroke-width="4.5"/><line x1="366.15" y1="1112.99" x2="355.48" y2="1107.65" stroke="#28351D" stroke-width="4.5"/><line x1="366.15" y1="1112.99" x2="376.82" y2="1107.65" stroke="#28351D" stroke-width="4.5"/><line x1="343.37" y1="1111.58" x2="335.37" y2="1107.58" stroke="#28351D" stroke-width="4.5"/><line x1="343.37" y1="1111.58" x2="351.37" y2="1107.58" stroke="#28351D" stroke-width="4.5"/><line x1="319.24" y1="1110.18" x2="313.9" y2="1107.51" stroke="#28351D" stroke-width="4.5"/><line x1="319.24" y1="1110.18" x2="324.57" y2="1107.51" stroke="#28351D" stroke-width="4.5"/><path d="M460 1120 L445.73 1109.55 L430.94 1099.1 L415.18 1088.65 L398.11 1078.2 L379.52 1067.75 L359.42 1057.31 L337.96 1046.86" stroke="#28351D" stroke-width="7.5" fill="none"/><line x1="430.94" y1="1099.1" x2="412.28" y2="1089.77" stroke="#28351D" stroke-width="4.5"/><line x1="430.94" y1="1099.1" x2="449.61" y2="1089.77" stroke="#28351D" stroke-width="4.5"/><line x1="415.18" y1="1088.65" x2="399.18" y2="1080.65" stroke="#28351D" stroke-width="4.5"/><line x1="415.18" y1="1088.65" x2="431.18" y2="1080.65" stroke="#28351D" stroke-width="4.5"/><line x1="398.11" y1="1078.2" x2="384.77" y2="1071.54" stroke="#28351D" stroke-width="4.5"/><line x1="398.11" y1="1078.2" x2="411.44" y2="1071.54" stroke="#28351D" stroke-width="4.5"/><line x1="379.52" y1="1067.75" x2="368.86" y2="1062.42" stroke="#28351D" stroke-width="4.5"/><line x1="379.52" y1="1067.75" x2="390.19" y2="1062.42" stroke="#28351D" stroke-width="4.5"/><line x1="359.42" y1="1057.31" x2="351.42" y2="1053.31" stroke="#28351D" stroke-width="4.5"/><line x1="359.42" y1="1057.31" x2="367.42" y2="1053.31" stroke="#28351D" stroke-width="4.5"/><line x1="337.96" y1="1046.86" x2="332.62" y2="1044.19" stroke="#28351D" stroke-width="4.5"/><line x1="337.96" y1="1046.86" x2="343.29" y2="1044.19" stroke="#28351D" stroke-width="4.5"/><path d="M460 1120 L453.55 1101.54 L446.59 1083.08 L438.66 1064.62 L429.4 1046.16 L418.65 1027.71 L406.37 1009.25 L392.73 990.79" stroke="#28351D" stroke-width="7.5" fill="none"/><line x1="446.59" y1="1083.08" x2="427.93" y2="1073.75" stroke="#28351D" stroke-width="4.5"/><line x1="446.59" y1="1083.08" x2="465.26" y2="1073.75" stroke="#28351D" stroke-width="4.5"/><line x1="438.66" y1="1064.62" x2="422.66" y2="1056.62" stroke="#28351D" stroke-width="4.5"/><line x1="438.66" y1="1064.62" x2="454.66" y2="1056.62" stroke="#28351D" stroke-width="4.5"/><line x1="429.4" y1="1046.16" x2="416.07" y2="1039.5" stroke="#28351D" stroke-width="4.5"/><line x1="429.4" y1="1046.16" x2="442.74" y2="1039.5" stroke="#28351D" stroke-width="4.5"/><line x1="418.65" y1="1027.71" x2="407.98" y2="1022.37" stroke="#28351D" stroke-width="4.5"/><line x1="418.65" y1="1027.71" x2="429.31" y2="1022.37" stroke="#28351D" stroke-width="4.5"/><line x1="406.37" y1="1009.25" x2="398.37" y2="1005.25" stroke="#28351D" stroke-width="4.5"/><line x1="406.37" y1="1009.25" x2="414.37" y2="1005.25" stroke="#28351D" stroke-width="4.5"/><line x1="392.73" y1="990.79" x2="387.4" y2="988.12" stroke="#28351D" stroke-width="4.5"/><line x1="392.73" y1="990.79" x2="398.07" y2="988.12" stroke="#28351D" stroke-width="4.5"/><path d="M460 1120 L461.87 1098.73 L463.23 1077.45 L463.61 1056.18 L462.68 1034.9 L460.24 1013.63 L456.28 992.35 L450.96 971.08" stroke="#28351D" stroke-width="7.5" fill="none"/><line x1="463.23" y1="1077.45" x2="444.56" y2="1068.12" stroke="#28351D" stroke-width="4.5"/><line x1="463.23" y1="1077.45" x2="481.9" y2="1068.12" stroke="#28351D" stroke-width="4.5"/><line x1="463.61" y1="1056.18" x2="447.61" y2="1048.18" stroke="#28351D" stroke-width="4.5"/><line x1="463.61" y1="1056.18" x2="479.61" y2="1048.18" stroke="#28351D" stroke-width="4.5"/><line x1="462.68" y1="1034.9" x2="449.35" y2="1028.24" stroke="#28351D" stroke-width="4.5"/><line x1="462.68" y1="1034.9" x2="476.01" y2="1028.24" stroke="#28351D" stroke-width="4.5"/><line x1="460.24" y1="1013.63" x2="449.57" y2="1008.29" stroke="#28351D" stroke-width="4.5"/><line x1="460.24" y1="1013.63" x2="470.91" y2="1008.29" stroke="#28351D" stroke-width="4.5"/><line x1="456.28" y1="992.35" x2="448.28" y2="988.35" stroke="#28351D" stroke-width="4.5"/><line x1="456.28" y1="992.35" x2="464.28" y2="988.35" stroke="#28351D" stroke-width="4.5"/><line x1="450.96" y1="971.08" x2="445.63" y2="968.41" stroke="#28351D" stroke-width="4.5"/><line x1="450.96" y1="971.08" x2="456.3" y2="968.41" stroke="#28351D" stroke-width="4.5"/><path d="M460 1120 L467.13 1098.74 L473.74 1077.48 L479.38 1056.22 L483.7 1034.96 L486.51 1013.7 L487.81 992.45 L487.75 971.19" stroke="#28351D" stroke-width="7.5" fill="none"/><line x1="473.74" y1="1077.48" x2="455.07" y2="1068.15" stroke="#28351D" stroke-width="4.5"/><line x1="473.74" y1="1077.48" x2="492.41" y2="1068.15" stroke="#28351D" stroke-width="4.5"/><line x1="479.38" y1="1056.22" x2="463.38" y2="1048.22" stroke="#28351D" stroke-width="4.5"/><line x1="479.38" y1="1056.22" x2="495.38" y2="1048.22" stroke="#28351D" stroke-width="4.5"/><line x1="483.7" y1="1034.96" x2="470.36" y2="1028.3" stroke="#28351D" stroke-width="4.5"/><line x1="483.7" y1="1034.96" x2="497.03" y2="1028.3" stroke="#28351D" stroke-width="4.5"/><line x1="486.51" y1="1013.7" x2="475.85" y2="1008.37" stroke="#28351D" stroke-width="4.5"/><line x1="486.51" y1="1013.7" x2="497.18" y2="1008.37" stroke="#28351D" stroke-width="4.5"/><line x1="487.81" y1="992.45" x2="479.81" y2="988.45" stroke="#28351D" stroke-width="4.5"/><line x1="487.81" y1="992.45" x2="495.81" y2="988.45" stroke="#28351D" stroke-width="4.5"/><line x1="487.75" y1="971.19" x2="482.41" y2="968.52" stroke="#28351D" stroke-width="4.5"/><line x1="487.75" y1="971.19" x2="493.08" y2="968.52" stroke="#28351D" stroke-width="4.5"/><path d="M460 1120 L478.06 1103.46 L495.6 1086.91 L512.17 1070.37 L527.42 1053.83 L541.16 1037.28 L553.39 1020.74 L564.26 1004.2" stroke="#28351D" stroke-width="7.5" fill="none"/><line x1="495.6" y1="1086.91" x2="476.93" y2="1077.58" stroke="#28351D" stroke-width="4.5"/><line x1="495.6" y1="1086.91" x2="514.27" y2="1077.58" stroke="#28351D" stroke-width="4.5"/><line x1="512.17" y1="1070.37" x2="496.17" y2="1062.37" stroke="#28351D" stroke-width="4.5"/><line x1="512.17" y1="1070.37" x2="528.17" y2="1062.37" stroke="#28351D" stroke-width="4.5"/><line x1="527.42" y1="1053.83" x2="514.09" y2="1047.16" stroke="#28351D" stroke-width="4.5"/><line x1="527.42" y1="1053.83" x2="540.75" y2="1047.16" stroke="#28351D" stroke-width="4.5"/><line x1="541.16" y1="1037.28" x2="530.5" y2="1031.95" stroke="#28351D" stroke-width="4.5"/><line x1="541.16" y1="1037.28" x2="551.83" y2="1031.95" stroke="#28351D" stroke-width="4.5"/><line x1="553.39" y1="1020.74" x2="545.39" y2="1016.74" stroke="#28351D" stroke-width="4.5"/><line x1="553.39" y1="1020.74" x2="561.39" y2="1016.74" stroke="#28351D" stroke-width="4.5"/><line x1="564.26" y1="1004.2" x2="558.92" y2="1001.53" stroke="#28351D" stroke-width="4.5"/><line x1="564.26" y1="1004.2" x2="569.59" y2="1001.53" stroke="#28351D" stroke-width="4.5"/><path d="M460 1120 L483.54 1110.28 L506.56 1100.57 L528.6 1090.85 L549.33 1081.13 L568.56 1071.42 L586.26 1061.7 L602.61 1051.98" stroke="#28351D" stroke-width="7.5" fill="none"/><line x1="506.56" y1="1100.57" x2="487.89" y2="1091.23" stroke="#28351D" stroke-width="4.5"/><line x1="506.56" y1="1100.57" x2="525.22" y2="1091.23" stroke="#28351D" stroke-width="4.5"/><line x1="528.6" y1="1090.85" x2="512.6" y2="1082.85" stroke="#28351D" stroke-width="4.5"/><line x1="528.6" y1="1090.85" x2="544.6" y2="1082.85" stroke="#28351D" stroke-width="4.5"/><line x1="549.33" y1="1081.13" x2="536" y2="1074.47" stroke="#28351D" stroke-width="4.5"/><line x1="549.33" y1="1081.13" x2="562.67" y2="1074.47" stroke="#28351D" stroke-width="4.5"/><line x1="568.56" y1="1071.42" x2="557.89" y2="1066.08" stroke="#28351D" stroke-width="4.5"/><line x1="568.56" y1="1071.42" x2="579.23" y2="1066.08" stroke="#28351D" stroke-width="4.5"/><line x1="586.26" y1="1061.7" x2="578.26" y2="1057.7" stroke="#28351D" stroke-width="4.5"/><line x1="586.26" y1="1061.7" x2="594.26" y2="1057.7" stroke="#28351D" stroke-width="4.5"/><line x1="602.61" y1="1051.98" x2="597.28" y2="1049.32" stroke="#28351D" stroke-width="4.5"/><line x1="602.61" y1="1051.98" x2="607.94" y2="1049.32" stroke="#28351D" stroke-width="4.5"/><path d="M460 1120 L485.85 1119.14 L511.18 1118.28 L535.54 1117.41 L558.58 1116.55 L580.12 1115.69 L600.14 1114.83 L618.79 1113.97" stroke="#28351D" stroke-width="7.5" fill="none"/><line x1="511.18" y1="1118.28" x2="492.51" y2="1108.94" stroke="#28351D" stroke-width="4.5"/><line x1="511.18" y1="1118.28" x2="529.85" y2="1108.94" stroke="#28351D" stroke-width="4.5"/><line x1="535.54" y1="1117.41" x2="519.54" y2="1109.41" stroke="#28351D" stroke-width="4.5"/><line x1="535.54" y1="1117.41" x2="551.54" y2="1109.41" stroke="#28351D" stroke-width="4.5"/><line x1="558.58" y1="1116.55" x2="545.25" y2="1109.89" stroke="#28351D" stroke-width="4.5"/><line x1="558.58" y1="1116.55" x2="571.92" y2="1109.89" stroke="#28351D" stroke-width="4.5"/><line x1="580.12" y1="1115.69" x2="569.45" y2="1110.36" stroke="#28351D" stroke-width="4.5"/><line x1="580.12" y1="1115.69" x2="590.79" y2="1110.36" stroke="#28351D" stroke-width="4.5"/><line x1="600.14" y1="1114.83" x2="592.14" y2="1110.83" stroke="#28351D" stroke-width="4.5"/><line x1="600.14" y1="1114.83" x2="608.14" y2="1110.83" stroke="#28351D" stroke-width="4.5"/><line x1="618.79" y1="1113.97" x2="613.46" y2="1111.3" stroke="#28351D" stroke-width="4.5"/><line x1="618.79" y1="1113.97" x2="624.13" y2="1111.3" stroke="#28351D" stroke-width="4.5"/><path d="M1500 1110 L1476.22 1109.35 L1451.72 1108.7 L1425.85 1108.05 L1398.14 1107.4 L1368.33 1106.75 L1336.38 1106.11 L1302.53 1105.46" stroke="#22301A" stroke-width="10.5" fill="none"/><line x1="1451.72" y1="1108.7" x2="1425.58" y2="1095.64" stroke="#22301A" stroke-width="6.3"/><line x1="1451.72" y1="1108.7" x2="1477.85" y2="1095.64" stroke="#22301A" stroke-width="6.3"/><line x1="1425.85" y1="1108.05" x2="1403.45" y2="1096.85" stroke="#22301A" stroke-width="6.3"/><line x1="1425.85" y1="1108.05" x2="1448.25" y2="1096.85" stroke="#22301A" stroke-width="6.3"/><line x1="1398.14" y1="1107.4" x2="1379.48" y2="1098.07" stroke="#22301A" stroke-width="6.3"/><line x1="1398.14" y1="1107.4" x2="1416.81" y2="1098.07" stroke="#22301A" stroke-width="6.3"/><line x1="1368.33" y1="1106.75" x2="1353.39" y2="1099.29" stroke="#22301A" stroke-width="6.3"/><line x1="1368.33" y1="1106.75" x2="1383.26" y2="1099.29" stroke="#22301A" stroke-width="6.3"/><line x1="1336.38" y1="1106.11" x2="1325.18" y2="1100.51" stroke="#22301A" stroke-width="6.3"/><line x1="1336.38" y1="1106.11" x2="1347.58" y2="1100.51" stroke="#22301A" stroke-width="6.3"/><line x1="1302.53" y1="1105.46" x2="1295.07" y2="1101.72" stroke="#22301A" stroke-width="6.3"/><line x1="1302.53" y1="1105.46" x2="1310" y2="1101.72" stroke="#22301A" stroke-width="6.3"/><path d="M1500 1110 L1479.31 1096.72 L1457.9 1083.44 L1435.13 1070.16 L1410.51 1056.87 L1383.79 1043.59 L1354.94 1030.31 L1324.18 1017.03" stroke="#22301A" stroke-width="10.5" fill="none"/><line x1="1457.9" y1="1083.44" x2="1431.77" y2="1070.37" stroke="#22301A" stroke-width="6.3"/><line x1="1457.9" y1="1083.44" x2="1484.04" y2="1070.37" stroke="#22301A" stroke-width="6.3"/><line x1="1435.13" y1="1070.16" x2="1412.73" y2="1058.96" stroke="#22301A" stroke-width="6.3"/><line x1="1435.13" y1="1070.16" x2="1457.53" y2="1058.96" stroke="#22301A" stroke-width="6.3"/><line x1="1410.51" y1="1056.87" x2="1391.85" y2="1047.54" stroke="#22301A" stroke-width="6.3"/><line x1="1410.51" y1="1056.87" x2="1429.18" y2="1047.54" stroke="#22301A" stroke-width="6.3"/><line x1="1383.79" y1="1043.59" x2="1368.86" y2="1036.13" stroke="#22301A" stroke-width="6.3"/><line x1="1383.79" y1="1043.59" x2="1398.72" y2="1036.13" stroke="#22301A" stroke-width="6.3"/><line x1="1354.94" y1="1030.31" x2="1343.74" y2="1024.71" stroke="#22301A" stroke-width="6.3"/><line x1="1354.94" y1="1030.31" x2="1366.14" y2="1024.71" stroke="#22301A" stroke-width="6.3"/><line x1="1324.18" y1="1017.03" x2="1316.72" y2="1013.3" stroke="#22301A" stroke-width="6.3"/><line x1="1324.18" y1="1017.03" x2="1331.65" y2="1013.3" stroke="#22301A" stroke-width="6.3"/><path d="M1500 1110 L1488.14 1086.05 L1475.57 1062.1 L1461.63 1038.15 L1445.84 1014.2 L1427.95 990.26 L1407.93 966.31 L1386.01 942.36" stroke="#22301A" stroke-width="10.5" fill="none"/><line x1="1475.57" y1="1062.1" x2="1449.43" y2="1049.04" stroke="#22301A" stroke-width="6.3"/><line x1="1475.57" y1="1062.1" x2="1501.7" y2="1049.04" stroke="#22301A" stroke-width="6.3"/><line x1="1461.63" y1="1038.15" x2="1439.23" y2="1026.95" stroke="#22301A" stroke-width="6.3"/><line x1="1461.63" y1="1038.15" x2="1484.03" y2="1026.95" stroke="#22301A" stroke-width="6.3"/><line x1="1445.84" y1="1014.2" x2="1427.17" y2="1004.87" stroke="#22301A" stroke-width="6.3"/><line x1="1445.84" y1="1014.2" x2="1464.51" y2="1004.87" stroke="#22301A" stroke-width="6.3"/><line x1="1427.95" y1="990.26" x2="1413.02" y2="982.79" stroke="#22301A" stroke-width="6.3"/><line x1="1427.95" y1="990.26" x2="1442.88" y2="982.79" stroke="#22301A" stroke-width="6.3"/><line x1="1407.93" y1="966.31" x2="1396.73" y2="960.71" stroke="#22301A" stroke-width="6.3"/><line x1="1407.93" y1="966.31" x2="1419.13" y2="960.71" stroke="#22301A" stroke-width="6.3"/><line x1="1386.01" y1="942.36" x2="1378.54" y2="938.63" stroke="#22301A" stroke-width="6.3"/><line x1="1386.01" y1="942.36" x2="1393.47" y2="938.63" stroke="#22301A" stroke-width="6.3"/><path d="M1500 1110 L1498.6 1080.98 L1496.47 1051.96 L1492.99 1022.95 L1487.66 993.93 L1480.22 964.91 L1470.65 935.89 L1459.18 906.88" stroke="#22301A" stroke-width="10.5" fill="none"/><line x1="1496.47" y1="1051.96" x2="1470.34" y2="1038.9" stroke="#22301A" stroke-width="6.3"/><line x1="1496.47" y1="1051.96" x2="1522.61" y2="1038.9" stroke="#22301A" stroke-width="6.3"/><line x1="1492.99" y1="1022.95" x2="1470.59" y2="1011.75" stroke="#22301A" stroke-width="6.3"/><line x1="1492.99" y1="1022.95" x2="1515.39" y2="1011.75" stroke="#22301A" stroke-width="6.3"/><line x1="1487.66" y1="993.93" x2="1468.99" y2="984.6" stroke="#22301A" stroke-width="6.3"/><line x1="1487.66" y1="993.93" x2="1506.32" y2="984.6" stroke="#22301A" stroke-width="6.3"/><line x1="1480.22" y1="964.91" x2="1465.28" y2="957.45" stroke="#22301A" stroke-width="6.3"/><line x1="1480.22" y1="964.91" x2="1495.15" y2="957.45" stroke="#22301A" stroke-width="6.3"/><line x1="1470.65" y1="935.89" x2="1459.45" y2="930.29" stroke="#22301A" stroke-width="6.3"/><line x1="1470.65" y1="935.89" x2="1481.85" y2="930.29" stroke="#22301A" stroke-width="6.3"/><line x1="1459.18" y1="906.88" x2="1451.71" y2="903.14" stroke="#22301A" stroke-width="6.3"/><line x1="1459.18" y1="906.88" x2="1466.65" y2="903.14" stroke="#22301A" stroke-width="6.3"/><path d="M1500 1110 L1509.58 1080.19 L1518.44 1050.38 L1525.94 1020.57 L1531.59 990.76 L1535.14 960.95 L1536.56 931.14 L1536.07 901.33" stroke="#22301A" stroke-width="10.5" fill="none"/><line x1="1518.44" y1="1050.38" x2="1492.31" y2="1037.31" stroke="#22301A" stroke-width="6.3"/><line x1="1518.44" y1="1050.38" x2="1544.58" y2="1037.31" stroke="#22301A" stroke-width="6.3"/><line x1="1525.94" y1="1020.57" x2="1503.54" y2="1009.37" stroke="#22301A" stroke-width="6.3"/><line x1="1525.94" y1="1020.57" x2="1548.34" y2="1009.37" stroke="#22301A" stroke-width="6.3"/><line x1="1531.59" y1="990.76" x2="1512.93" y2="981.43" stroke="#22301A" stroke-width="6.3"/><line x1="1531.59" y1="990.76" x2="1550.26" y2="981.43" stroke="#22301A" stroke-width="6.3"/><line x1="1535.14" y1="960.95" x2="1520.21" y2="953.48" stroke="#22301A" stroke-width="6.3"/><line x1="1535.14" y1="960.95" x2="1550.07" y2="953.48" stroke="#22301A" stroke-width="6.3"/><line x1="1536.56" y1="931.14" x2="1525.36" y2="925.54" stroke="#22301A" stroke-width="6.3"/><line x1="1536.56" y1="931.14" x2="1547.76" y2="925.54" stroke="#22301A" stroke-width="6.3"/><line x1="1536.07" y1="901.33" x2="1528.6" y2="897.6" stroke="#22301A" stroke-width="6.3"/><line x1="1536.07" y1="901.33" x2="1543.54" y2="897.6" stroke="#22301A" stroke-width="6.3"/><path d="M1500 1110 L1524.45 1086.18 L1548.18 1062.36 L1570.54 1038.54 L1591.07 1014.72 L1609.48 990.9 L1625.77 967.08 L1640.15 943.26" stroke="#22301A" stroke-width="10.5" fill="none"/><line x1="1548.18" y1="1062.36" x2="1522.05" y2="1049.29" stroke="#22301A" stroke-width="6.3"/><line x1="1548.18" y1="1062.36" x2="1574.31" y2="1049.29" stroke="#22301A" stroke-width="6.3"/><line x1="1570.54" y1="1038.54" x2="1548.14" y2="1027.34" stroke="#22301A" stroke-width="6.3"/><line x1="1570.54" y1="1038.54" x2="1592.94" y2="1027.34" stroke="#22301A" stroke-width="6.3"/><line x1="1591.07" y1="1014.72" x2="1572.4" y2="1005.39" stroke="#22301A" stroke-width="6.3"/><line x1="1591.07" y1="1014.72" x2="1609.73" y2="1005.39" stroke="#22301A" stroke-width="6.3"/><line x1="1609.48" y1="990.9" x2="1594.55" y2="983.44" stroke="#22301A" stroke-width="6.3"/><line x1="1609.48" y1="990.9" x2="1624.42" y2="983.44" stroke="#22301A" stroke-width="6.3"/><line x1="1625.77" y1="967.08" x2="1614.57" y2="961.48" stroke="#22301A" stroke-width="6.3"/><line x1="1625.77" y1="967.08" x2="1636.97" y2="961.48" stroke="#22301A" stroke-width="6.3"/><line x1="1640.15" y1="943.26" x2="1632.68" y2="939.53" stroke="#22301A" stroke-width="6.3"/><line x1="1640.15" y1="943.26" x2="1647.62" y2="939.53" stroke="#22301A" stroke-width="6.3"/><path d="M1500 1110 L1533.07 1096.64 L1565.42 1083.27 L1596.41 1069.91 L1625.55 1056.55 L1652.59 1043.18 L1677.49 1029.82 L1700.5 1016.45" stroke="#22301A" stroke-width="10.5" fill="none"/><line x1="1565.42" y1="1083.27" x2="1539.29" y2="1070.21" stroke="#22301A" stroke-width="6.3"/><line x1="1565.42" y1="1083.27" x2="1591.55" y2="1070.21" stroke="#22301A" stroke-width="6.3"/><line x1="1596.41" y1="1069.91" x2="1574.01" y2="1058.71" stroke="#22301A" stroke-width="6.3"/><line x1="1596.41" y1="1069.91" x2="1618.81" y2="1058.71" stroke="#22301A" stroke-width="6.3"/><line x1="1625.55" y1="1056.55" x2="1606.88" y2="1047.21" stroke="#22301A" stroke-width="6.3"/><line x1="1625.55" y1="1056.55" x2="1644.22" y2="1047.21" stroke="#22301A" stroke-width="6.3"/><line x1="1652.59" y1="1043.18" x2="1637.65" y2="1035.72" stroke="#22301A" stroke-width="6.3"/><line x1="1652.59" y1="1043.18" x2="1667.52" y2="1035.72" stroke="#22301A" stroke-width="6.3"/><line x1="1677.49" y1="1029.82" x2="1666.29" y2="1024.22" stroke="#22301A" stroke-width="6.3"/><line x1="1677.49" y1="1029.82" x2="1688.69" y2="1024.22" stroke="#22301A" stroke-width="6.3"/><line x1="1700.5" y1="1016.45" x2="1693.03" y2="1012.72" stroke="#22301A" stroke-width="6.3"/><line x1="1700.5" y1="1016.45" x2="1707.96" y2="1012.72" stroke="#22301A" stroke-width="6.3"/><path d="M1500 1110 L1535.88 1105.52 L1571.03 1101.04 L1604.82 1096.56 L1636.77 1092.07 L1666.61 1087.59 L1694.32 1083.11 L1720.13 1078.63" stroke="#22301A" stroke-width="10.5" fill="none"/><line x1="1571.03" y1="1101.04" x2="1544.9" y2="1087.97" stroke="#22301A" stroke-width="6.3"/><line x1="1571.03" y1="1101.04" x2="1597.16" y2="1087.97" stroke="#22301A" stroke-width="6.3"/><line x1="1604.82" y1="1096.56" x2="1582.42" y2="1085.36" stroke="#22301A" stroke-width="6.3"/><line x1="1604.82" y1="1096.56" x2="1627.22" y2="1085.36" stroke="#22301A" stroke-width="6.3"/><line x1="1636.77" y1="1092.07" x2="1618.1" y2="1082.74" stroke="#22301A" stroke-width="6.3"/><line x1="1636.77" y1="1092.07" x2="1655.43" y2="1082.74" stroke="#22301A" stroke-width="6.3"/><line x1="1666.61" y1="1087.59" x2="1651.67" y2="1080.13" stroke="#22301A" stroke-width="6.3"/><line x1="1666.61" y1="1087.59" x2="1681.54" y2="1080.13" stroke="#22301A" stroke-width="6.3"/><line x1="1694.32" y1="1083.11" x2="1683.12" y2="1077.51" stroke="#22301A" stroke-width="6.3"/><line x1="1694.32" y1="1083.11" x2="1705.52" y2="1077.51" stroke="#22301A" stroke-width="6.3"/><line x1="1720.13" y1="1078.63" x2="1712.66" y2="1074.9" stroke="#22301A" stroke-width="6.3"/><line x1="1720.13" y1="1078.63" x2="1727.59" y2="1074.9" stroke="#22301A" stroke-width="6.3"/><g opacity="1"><ellipse cx="1649.39" cy="1059.42" rx="40.56" ry="38.75" fill="#1F2A18" opacity="1"/><ellipse cx="1817.82" cy="1086.6" rx="43.7" ry="32.44" fill="#1F2A18" opacity="0.84"/><ellipse cx="1651.98" cy="1057.15" rx="61.86" ry="46.02" fill="#1F2A18" opacity="0.97"/><ellipse cx="1740.97" cy="1081.39" rx="50.23" ry="30.12" fill="#1F2A18" opacity="0.87"/><ellipse cx="1637.82" cy="1019.37" rx="69.1" ry="27.16" fill="#1F2A18" opacity="0.91"/><ellipse cx="1756.03" cy="1028.47" rx="69" ry="36.28" fill="#1F2A18" opacity="0.84"/><ellipse cx="1662.81" cy="1023.52" rx="63.39" ry="37.46" fill="#1F2A18" opacity="0.9"/><ellipse cx="1769.1" cy="1052.17" rx="74.1" ry="38.32" fill="#1F2A18" opacity="0.99"/><ellipse cx="1627.94" cy="1017.97" rx="44.83" ry="32.49" fill="#1F2A18" opacity="0.87"/><ellipse cx="1737.68" cy="1081.48" rx="74.54" ry="44.07" fill="#1F2A18" opacity="0.82"/></g><path d="M1691.32 270.78h1.4v1.4h-1.4zM959.51 226.59h1.4v1.4h-1.4zM928.05 471.05h1.4v1.4h-1.4zM707.08 146.35h1.4v1.4h-1.4zM1352.17 667.66h1.4v1.4h-1.4zM196.47 530.07h1.4v1.4h-1.4zM113 121.72h1.4v1.4h-1.4zM1545.58 560.35h1.4v1.4h-1.4zM345.93 8.42h1.4v1.4h-1.4zM1774.36 735.48h1.4v1.4h-1.4zM94.85 743.88h1.4v1.4h-1.4zM1205.32 459.6h1.4v1.4h-1.4zM118.63 788.14h1.4v1.4h-1.4zM984.06 443h1.4v1.4h-1.4zM1058.44 1016.76h1.4v1.4h-1.4zM1102.13 1054.87h1.4v1.4h-1.4zM506.54 852.49h1.4v1.4h-1.4zM1477.46 413.02h1.4v1.4h-1.4zM1204.58 483.93h1.4v1.4h-1.4zM1627.46 1155.28h1.4v1.4h-1.4zM1309.31 430.48h1.4v1.4h-1.4zM337.52 564.75h1.4v1.4h-1.4zM1442.94 94.93h1.4v1.4h-1.4zM950.87 604.99h1.4v1.4h-1.4zM706.42 1197.9h1.4v1.4h-1.4zM963.05 233.34h1.4v1.4h-1.4zM266.44 1017.46h1.4v1.4h-1.4zM581.89 275.59h1.4v1.4h-1.4zM1577.53 853.68h1.4v1.4h-1.4zM854.14 408.6h1.4v1.4h-1.4zM1301.58 122.04h1.4v1.4h-1.4zM437.58 932.89h1.4v1.4h-1.4zM1569.87 278.43h1.4v1.4h-1.4zM1171.61 737.41h1.4v1.4h-1.4zM189.58 166.08h1.4v1.4h-1.4zM47.38 514.81h1.4v1.4h-1.4zM537.74 1176.29h1.4v1.4h-1.4zM1740.79 179.39h1.4v1.4h-1.4zM979.98 373.69h1.4v1.4h-1.4zM1608.03 612.89h1.4v1.4h-1.4zM174.21 801.19h1.4v1.4h-1.4zM555.31 38.96h1.4v1.4h-1.4zM1134.38 1144.48h1.4v1.4h-1.4zM796.58 1009.13h1.4v1.4h-1.4zM1344.07 1099.53h1.4v1.4h-1.4zM1532.17 309.96h1.4v1.4h-1.4zM495.66 110.05h1.4v1.4h-1.4zM665.38 947.09h1.4v1.4h-1.4zM1384.82 488.4h1.4v1.4h-1.4zM931.86 1126.11h1.4v1.4h-1.4zM298.66 823.15h1.4v1.4h-1.4zM1737.95 786.84h1.4v1.4h-1.4zM630.29 236.57h1.4v1.4h-1.4zM542.45 1187.67h1.4v1.4h-1.4zM603.12 505.23h1.4v1.4h-1.4zM331.96 667.93h1.4v1.4h-1.4zM1759.76 306.03h1.4v1.4h-1.4zM391.47 330.18h1.4v1.4h-1.4zM677.59 963.8h1.4v1.4h-1.4zM1575.96 57.51h1.4v1.4h-1.4zM731.16 1157.32h1.4v1.4h-1.4zM530.24 1126.14h1.4v1.4h-1.4zM955 37.81h1.4v1.4h-1.4zM1111.48 198.42h1.4v1.4h-1.4zM1756.36 606.76h1.4v1.4h-1.4zM198.06 356.26h1.4v1.4h-1.4zM1358.3 915.66h1.4v1.4h-1.4zM983.18 198.46h1.4v1.4h-1.4zM1175.61 1163.59h1.4v1.4h-1.4zM1791.11 8.58h1.4v1.4h-1.4zM407.24 554h1.4v1.4h-1.4zM379.26 273.32h1.4v1.4h-1.4zM139.95 846.13h1.4v1.4h-1.4zM1289.46 1169.69h1.4v1.4h-1.4zM802.77 771.91h1.4v1.4h-1.4zM471.15 299.76h1.4v1.4h-1.4zM694.42 1170.51h1.4v1.4h-1.4zM1723.54 124.27h1.4v1.4h-1.4zM791.26 161.69h1.4v1.4h-1.4zM1082.18 717.58h1.4v1.4h-1.4zM511.19 161.03h1.4v1.4h-1.4zM768.34 162.99h1.4v1.4h-1.4zM1382.26 575.4h1.4v1.4h-1.4zM1725.79 91.34h1.4v1.4h-1.4zM590.66 168.47h1.4v1.4h-1.4zM1040.19 575.83h1.4v1.4h-1.4zM6 60.78h1.4v1.4h-1.4zM456.21 927.28h1.4v1.4h-1.4zM533.98 1062.14h1.4v1.4h-1.4zM203.24 808.83h1.4v1.4h-1.4zM512.03 1129.36h1.4v1.4h-1.4zM1092 348h1.4v1.4h-1.4zM128.82 1027.03h1.4v1.4h-1.4zM844.99 1056.66h1.4v1.4h-1.4zM763.06 1023.9h1.4v1.4h-1.4zM1136.45 386.03h1.4v1.4h-1.4zM1196.19 131.77h1.4v1.4h-1.4zM938.57 795.04h1.4v1.4h-1.4zM439.94 966.32h1.4v1.4h-1.4zM332.14 364.46h1.4v1.4h-1.4zM994.87 357.5h1.4v1.4h-1.4zM112.29 604.63h1.4v1.4h-1.4zM526.46 856.78h1.4v1.4h-1.4zM1589.17 506.98h1.4v1.4h-1.4zM1269.79 340.44h1.4v1.4h-1.4zM305.21 990.67h1.4v1.4h-1.4zM299.71 519.23h1.4v1.4h-1.4zM325.35 1026.96h1.4v1.4h-1.4zM836.92 637.91h1.4v1.4h-1.4zM905.83 1132.11h1.4v1.4h-1.4zM157.52 943.16h1.4v1.4h-1.4zM1217.23 646.63h1.4v1.4h-1.4zM980.87 681.74h1.4v1.4h-1.4zM516.19 949.9h1.4v1.4h-1.4zM191.18 133.94h1.4v1.4h-1.4zM1738.25 476.28h1.4v1.4h-1.4zM1302.37 566.94h1.4v1.4h-1.4zM769.26 936.2h1.4v1.4h-1.4zM410.39 1070.33h1.4v1.4h-1.4zM1636.62 577.62h1.4v1.4h-1.4zM60.9 749.6h1.4v1.4h-1.4zM1513.14 659.46h1.4v1.4h-1.4zM589.13 1017.32h1.4v1.4h-1.4zM769.76 554.39h1.4v1.4h-1.4zM1280.37 75.53h1.4v1.4h-1.4zM1659.51 283.17h1.4v1.4h-1.4zM83.89 334.35h1.4v1.4h-1.4zM1549.16 973.3h1.4v1.4h-1.4zM1501.13 471.06h1.4v1.4h-1.4zM961.95 1084.35h1.4v1.4h-1.4zM292.86 545.48h1.4v1.4h-1.4zM1681.21 1021.59h1.4v1.4h-1.4zM349.15 146.27h1.4v1.4h-1.4zM1240.62 1117h1.4v1.4h-1.4zM921.18 345.63h1.4v1.4h-1.4zM1459.44 109.83h1.4v1.4h-1.4zM505.07 1146.96h1.4v1.4h-1.4zM187.71 790.3h1.4v1.4h-1.4zM1479.34 1159.85h1.4v1.4h-1.4zM1265.31 553.29h1.4v1.4h-1.4zM636.2 365.24h1.4v1.4h-1.4zM834.62 89.4h1.4v1.4h-1.4zM198.39 494.73h1.4v1.4h-1.4zM146.11 341.3h1.4v1.4h-1.4zM348.61 108.26h1.4v1.4h-1.4zM366.67 828.86h1.4v1.4h-1.4zM1657.53 926.82h1.4v1.4h-1.4zM1592.06 538.96h1.4v1.4h-1.4zM1170.03 943.6h1.4v1.4h-1.4zM1720.41 964.72h1.4v1.4h-1.4zM1375.97 854.42h1.4v1.4h-1.4zM1456.35 272.94h1.4v1.4h-1.4zM1230.02 1163.1h1.4v1.4h-1.4zM345.58 941.77h1.4v1.4h-1.4zM539.86 1001.39h1.4v1.4h-1.4zM521.24 1146.06h1.4v1.4h-1.4zM981.19 659.96h1.4v1.4h-1.4zM568.07 209.93h1.4v1.4h-1.4zM477.23 1154.21h1.4v1.4h-1.4zM1142.36 531.27h1.4v1.4h-1.4zM1547.15 98.84h1.4v1.4h-1.4zM639.75 546.23h1.4v1.4h-1.4zM693.3 623.73h1.4v1.4h-1.4zM1652.25 501.32h1.4v1.4h-1.4zM606.95 253.38h1.4v1.4h-1.4zM1543.1 355.09h1.4v1.4h-1.4zM515.94 505.83h1.4v1.4h-1.4zM932.09 182.28h1.4v1.4h-1.4zM1703.24 593.28h1.4v1.4h-1.4zM563.65 1141.58h1.4v1.4h-1.4zM1485.29 539.5h1.4v1.4h-1.4zM320.97 1149.38h1.4v1.4h-1.4zM88.7 294.7h1.4v1.4h-1.4zM1010.88 1005.28h1.4v1.4h-1.4zM1315.96 457.89h1.4v1.4h-1.4zM154.02 103.5h1.4v1.4h-1.4zM1067.15 221.22h1.4v1.4h-1.4zM595.49 319.43h1.4v1.4h-1.4zM1508.86 619.83h1.4v1.4h-1.4zM368.8 660.91h1.4v1.4h-1.4zM1046.32 871.01h1.4v1.4h-1.4zM515.24 1122.54h1.4v1.4h-1.4zM183.7 316.26h1.4v1.4h-1.4zM871.22 932.95h1.4v1.4h-1.4zM1373.95 1096.57h1.4v1.4h-1.4zM731.72 324.52h1.4v1.4h-1.4zM323.24 174.13h1.4v1.4h-1.4zM1455.47 46.63h1.4v1.4h-1.4zM113.92 865.84h1.4v1.4h-1.4zM1466.39 16.94h1.4v1.4h-1.4zM440.16 1079.22h1.4v1.4h-1.4zM640.59 423.55h1.4v1.4h-1.4zM346.59 275.19h1.4v1.4h-1.4zM566.99 108.82h1.4v1.4h-1.4zM158.72 18.48h1.4v1.4h-1.4zM1542.53 1107.42h1.4v1.4h-1.4zM694.55 226.16h1.4v1.4h-1.4zM945.83 473.84h1.4v1.4h-1.4zM824.64 1031.92h1.4v1.4h-1.4zM1730.41 277.47h1.4v1.4h-1.4zM435.46 1.59h1.4v1.4h-1.4zM391.62 788.19h1.4v1.4h-1.4zM340.37 146.83h1.4v1.4h-1.4zM771.25 370.54h1.4v1.4h-1.4zM1223.84 321.63h1.4v1.4h-1.4zM1351 726.28h1.4v1.4h-1.4zM268.37 1046.13h1.4v1.4h-1.4zM1625.82 742.22h1.4v1.4h-1.4zM667.29 811.37h1.4v1.4h-1.4zM1641.35 816.36h1.4v1.4h-1.4zM1440.19 414.54h1.4v1.4h-1.4zM1695 668.16h1.4v1.4h-1.4zM350.16 594.19h1.4v1.4h-1.4zM331.7 187.4h1.4v1.4h-1.4zM1367.22 42.53h1.4v1.4h-1.4zM1292.8 204.27h1.4v1.4h-1.4zM1739.67 785.81h1.4v1.4h-1.4zM1656.88 826.43h1.4v1.4h-1.4zM1581.66 330.3h1.4v1.4h-1.4zM108.48 1074.26h1.4v1.4h-1.4zM1528.9 847.8h1.4v1.4h-1.4zM381.23 714.55h1.4v1.4h-1.4zM1529.4 389.47h1.4v1.4h-1.4zM1428.62 406.43h1.4v1.4h-1.4zM580.43 670.76h1.4v1.4h-1.4zM914.47 751.28h1.4v1.4h-1.4zM493 280.9h1.4v1.4h-1.4zM364.14 14.9h1.4v1.4h-1.4zM1181.95 166.93h1.4v1.4h-1.4zM1665.99 894.21h1.4v1.4h-1.4zM255.27 669.75h1.4v1.4h-1.4zM612.72 161.17h1.4v1.4h-1.4zM491.43 701.6h1.4v1.4h-1.4zM913.28 550.94h1.4v1.4h-1.4zM760.33 430.3h1.4v1.4h-1.4zM1228.8 646.15h1.4v1.4h-1.4zM1452.7 224.5h1.4v1.4h-1.4zM555.11 214.39h1.4v1.4h-1.4zM1204.1 1185.46h1.4v1.4h-1.4zM651.14 1036.46h1.4v1.4h-1.4zM974.02 719h1.4v1.4h-1.4zM364.17 427.85h1.4v1.4h-1.4zM671.73 126.15h1.4v1.4h-1.4zM1389.33 624.72h1.4v1.4h-1.4zM1399.04 131.88h1.4v1.4h-1.4zM39.6 956.72h1.4v1.4h-1.4zM1295.37 205.22h1.4v1.4h-1.4zM441.46 6.47h1.4v1.4h-1.4zM1004.59 80.01h1.4v1.4h-1.4zM1080.3 1172.25h1.4v1.4h-1.4zM533.35 1167.9h1.4v1.4h-1.4zM650.84 44.34h1.4v1.4h-1.4zM117.2 349.04h1.4v1.4h-1.4zM1177.95 986.27h1.4v1.4h-1.4zM1079.05 354.5h1.4v1.4h-1.4zM34.36 1017.91h1.4v1.4h-1.4zM1302.52 1094.45h1.4v1.4h-1.4zM1115.38 694.48h1.4v1.4h-1.4zM1425.44 756.43h1.4v1.4h-1.4zM865.67 1098.12h1.4v1.4h-1.4zM159.69 101.83h1.4v1.4h-1.4zM335.89 366.23h1.4v1.4h-1.4zM529.54 533.4h1.4v1.4h-1.4zM1181.21 298.33h1.4v1.4h-1.4zM530.24 1142.16h1.4v1.4h-1.4zM1681.24 113.03h1.4v1.4h-1.4zM134.31 79.5h1.4v1.4h-1.4zM936.23 916.49h1.4v1.4h-1.4zM455.83 211.86h1.4v1.4h-1.4zM613.25 21.11h1.4v1.4h-1.4zM1206.97 950.72h1.4v1.4h-1.4zM1139.65 210.25h1.4v1.4h-1.4zM1194.47 1185.6h1.4v1.4h-1.4zM646.83 682.52h1.4v1.4h-1.4zM438.4 550.61h1.4v1.4h-1.4zM1281.59 599.11h1.4v1.4h-1.4zM73.85 642.55h1.4v1.4h-1.4zM695.66 642.44h1.4v1.4h-1.4zM1525.5 1133.64h1.4v1.4h-1.4zM1110.5 1179.31h1.4v1.4h-1.4zM481.28 1018.03h1.4v1.4h-1.4zM745.28 1068.52h1.4v1.4h-1.4zM1023.85 1055.25h1.4v1.4h-1.4zM1296.51 1012.77h1.4v1.4h-1.4zM1250.33 700.99h1.4v1.4h-1.4zM1797.68 405.77h1.4v1.4h-1.4zM330.89 680.17h1.4v1.4h-1.4zM594.47 851.07h1.4v1.4h-1.4zM1598.84 867.68h1.4v1.4h-1.4zM938.15 828.89h1.4v1.4h-1.4zM474.92 499.1h1.4v1.4h-1.4zM517.9 949.4h1.4v1.4h-1.4zM313.55 807.21h1.4v1.4h-1.4zM1234.96 60.18h1.4v1.4h-1.4zM1672.94 753.81h1.4v1.4h-1.4zM1417.73 779.94h1.4v1.4h-1.4zM1331.35 110.39h1.4v1.4h-1.4zM266.66 1074.94h1.4v1.4h-1.4zM759.03 249h1.4v1.4h-1.4zM864.85 379.33h1.4v1.4h-1.4zM1562.28 436.9h1.4v1.4h-1.4zM390.54 665.19h1.4v1.4h-1.4zM952.38 738.62h1.4v1.4h-1.4zM1792.76 529.5h1.4v1.4h-1.4zM56.42 912.2h1.4v1.4h-1.4zM298.46 941.14h1.4v1.4h-1.4zM697.71 782.51h1.4v1.4h-1.4zM1271.71 339.27h1.4v1.4h-1.4zM1300.38 1080.84h1.4v1.4h-1.4zM127.26 315.78h1.4v1.4h-1.4zM1378.43 825.38h1.4v1.4h-1.4zM197.81 1165.64h1.4v1.4h-1.4zM1346.01 1143.86h1.4v1.4h-1.4zM1268.39 289.48h1.4v1.4h-1.4zM611.01 215.33h1.4v1.4h-1.4zM1461.52 662.9h1.4v1.4h-1.4zM924.9 45.43h1.4v1.4h-1.4zM628.78 18.95h1.4v1.4h-1.4zM639.72 202h1.4v1.4h-1.4zM235.11 381.48h1.4v1.4h-1.4zM26.34 1080.25h1.4v1.4h-1.4zM1487.05 1061.8h1.4v1.4h-1.4zM771.86 53.69h1.4v1.4h-1.4zM1778.25 1103.85h1.4v1.4h-1.4zM629.18 934.88h1.4v1.4h-1.4zM1394.42 1158.1h1.4v1.4h-1.4zM381.52 375.53h1.4v1.4h-1.4zM1194.37 138.89h1.4v1.4h-1.4zM377.61 1013.28h1.4v1.4h-1.4zM1384.3 581.63h1.4v1.4h-1.4zM490.97 339.23h1.4v1.4h-1.4zM379.08 710.92h1.4v1.4h-1.4zM1788.91 554.19h1.4v1.4h-1.4zM1537.2 233.94h1.4v1.4h-1.4zM874.95 691.93h1.4v1.4h-1.4zM218.58 1088.65h1.4v1.4h-1.4zM784.44 539.19h1.4v1.4h-1.4zM1561.95 279.06h1.4v1.4h-1.4zM950.31 263.01h1.4v1.4h-1.4zM1235.55 710.26h1.4v1.4h-1.4zM1318.66 800.57h1.4v1.4h-1.4zM1093.75 727.79h1.4v1.4h-1.4zM425.03 758.43h1.4v1.4h-1.4zM706.19 974.42h1.4v1.4h-1.4zM911.18 1071.05h1.4v1.4h-1.4zM1625.17 698.7h1.4v1.4h-1.4zM1487.24 830.97h1.4v1.4h-1.4zM807.6 833.76h1.4v1.4h-1.4zM884.86 123.8h1.4v1.4h-1.4zM1646.8 695.98h1.4v1.4h-1.4zM1441.08 836.82h1.4v1.4h-1.4zM649.34 24.93h1.4v1.4h-1.4zM403.49 623.76h1.4v1.4h-1.4zM469.82 925.58h1.4v1.4h-1.4zM1013.95 618.76h1.4v1.4h-1.4zM553.38 34.46h1.4v1.4h-1.4zM1131.33 591.58h1.4v1.4h-1.4zM924.6 262.88h1.4v1.4h-1.4zM1638.57 803.18h1.4v1.4h-1.4zM309.57 628.2h1.4v1.4h-1.4zM857.37 535.99h1.4v1.4h-1.4zM45.03 517.09h1.4v1.4h-1.4zM404.24 570.71h1.4v1.4h-1.4zM561.15 695.87h1.4v1.4h-1.4zM520.48 1027.95h1.4v1.4h-1.4zM629.48 708h1.4v1.4h-1.4zM269.53 820.58h1.4v1.4h-1.4zM1639.14 71.36h1.4v1.4h-1.4zM869.08 905.02h1.4v1.4h-1.4zM1114.6 360.13h1.4v1.4h-1.4zM1690.1 1029.42h1.4v1.4h-1.4zM1612.41 550h1.4v1.4h-1.4zM358.13 1176.24h1.4v1.4h-1.4zM314.42 980.29h1.4v1.4h-1.4zM1349.92 632.28h1.4v1.4h-1.4zM1220.03 809h1.4v1.4h-1.4zM1408.23 1123.45h1.4v1.4h-1.4zM1562.61 530.47h1.4v1.4h-1.4zM1190.45 631.98h1.4v1.4h-1.4zM666.51 456.22h1.4v1.4h-1.4zM1264.86 290.4h1.4v1.4h-1.4zM548.86 971.1h1.4v1.4h-1.4zM103.16 297.98h1.4v1.4h-1.4zM895.06 438.41h1.4v1.4h-1.4zM531.51 937.77h1.4v1.4h-1.4zM492.96 1047.32h1.4v1.4h-1.4zM1131.79 884.53h1.4v1.4h-1.4zM1106.37 488.19h1.4v1.4h-1.4zM820.36 1060.11h1.4v1.4h-1.4zM1211.94 192.3h1.4v1.4h-1.4zM554.7 452.88h1.4v1.4h-1.4zM1614.21 286.2h1.4v1.4h-1.4zM812.38 419.13h1.4v1.4h-1.4zM509.9 91.34h1.4v1.4h-1.4zM518.76 925.83h1.4v1.4h-1.4zM1742.97 635.5h1.4v1.4h-1.4zM1366.84 579.55h1.4v1.4h-1.4zM247.92 1016.66h1.4v1.4h-1.4zM302.04 255.09h1.4v1.4h-1.4zM1292.95 687.43h1.4v1.4h-1.4zM67.2 582.1h1.4v1.4h-1.4zM1329.27 840.26h1.4v1.4h-1.4zM945.2 677.18h1.4v1.4h-1.4zM928.73 861.33h1.4v1.4h-1.4zM1035.91 678.4h1.4v1.4h-1.4zM890.24 448.59h1.4v1.4h-1.4zM1491.74 798.39h1.4v1.4h-1.4zM238.73 72.18h1.4v1.4h-1.4zM1770.65 1114.17h1.4v1.4h-1.4zM1632.61 53.91h1.4v1.4h-1.4zM1786.72 46.84h1.4v1.4h-1.4zM180.8 235.64h1.4v1.4h-1.4zM549.41 1193.83h1.4v1.4h-1.4zM1130.5 880.69h1.4v1.4h-1.4zM1474.14 416.45h1.4v1.4h-1.4zM1279.58 836.85h1.4v1.4h-1.4zM1468.26 532.73h1.4v1.4h-1.4zM570.87 372.74h1.4v1.4h-1.4zM995.92 105.34h1.4v1.4h-1.4zM565.01 720.59h1.4v1.4h-1.4zM876.24 793.74h1.4v1.4h-1.4zM1778.01 823.33h1.4v1.4h-1.4zM648.37 1116.51h1.4v1.4h-1.4zM1239.52 805.5h1.4v1.4h-1.4zM1362.29 32.12h1.4v1.4h-1.4zM1460.72 63.32h1.4v1.4h-1.4zM1623.95 258.54h1.4v1.4h-1.4zM46.45 815.36h1.4v1.4h-1.4zM1510.67 572h1.4v1.4h-1.4zM540.4 983.79h1.4v1.4h-1.4zM1454.98 600.54h1.4v1.4h-1.4zM17.89 21.67h1.4v1.4h-1.4zM1018.1 262.94h1.4v1.4h-1.4zM1185.93 405.58h1.4v1.4h-1.4zM957.27 237.68h1.4v1.4h-1.4zM1679.77 432.14h1.4v1.4h-1.4zM923.84 106.82h1.4v1.4h-1.4zM307.3 369.89h1.4v1.4h-1.4zM1081.71 143.96h1.4v1.4h-1.4zM553.96 524.39h1.4v1.4h-1.4zM1045.57 846.71h1.4v1.4h-1.4zM1602.51 1153.73h1.4v1.4h-1.4zM1680.7 61.91h1.4v1.4h-1.4zM168.97 908.06h1.4v1.4h-1.4zM202.1 45.33h1.4v1.4h-1.4zM1581.94 1088.31h1.4v1.4h-1.4zM1248.9 275.57h1.4v1.4h-1.4zM1125.81 1142.67h1.4v1.4h-1.4zM1781.76 868.82h1.4v1.4h-1.4zM974.93 210.47h1.4v1.4h-1.4zM1363.47 1176.31h1.4v1.4h-1.4zM419.22 365.18h1.4v1.4h-1.4zM1182.21 634.25h1.4v1.4h-1.4zM362.7 700.41h1.4v1.4h-1.4zM1402.19 710.77h1.4v1.4h-1.4zM1608.74 165.48h1.4v1.4h-1.4zM1339.68 1023.78h1.4v1.4h-1.4zM1541.99 1133.27h1.4v1.4h-1.4zM643.13 77.45h1.4v1.4h-1.4zM1359.79 835.68h1.4v1.4h-1.4zM817.71 145.13h1.4v1.4h-1.4zM1099.5 332.79h1.4v1.4h-1.4zM9.21 1152.96h1.4v1.4h-1.4zM344.64 1159.97h1.4v1.4h-1.4zM694.04 513.41h1.4v1.4h-1.4zM1295.44 947.37h1.4v1.4h-1.4zM1360.6 245.72h1.4v1.4h-1.4zM841.46 1118.49h1.4v1.4h-1.4zM741.5 700.3h1.4v1.4h-1.4zM401.08 15.75h1.4v1.4h-1.4zM1076.93 625.95h1.4v1.4h-1.4zM1629.14 798.5h1.4v1.4h-1.4zM1163.36 624.82h1.4v1.4h-1.4zM176.13 639.83h1.4v1.4h-1.4zM635.15 603.88h1.4v1.4h-1.4zM1435.96 1087.44h1.4v1.4h-1.4zM827.47 335.98h1.4v1.4h-1.4zM1215.06 331.86h1.4v1.4h-1.4zM1752.69 308h1.4v1.4h-1.4zM1308.38 722.44h1.4v1.4h-1.4zM667.71 705.81h1.4v1.4h-1.4zM845.78 320.9h1.4v1.4h-1.4zM800.09 776.84h1.4v1.4h-1.4zM626.09 1139.22h1.4v1.4h-1.4zM1367.73 1009.81h1.4v1.4h-1.4zM418.31 984.13h1.4v1.4h-1.4zM1064.51 667.91h1.4v1.4h-1.4zM1244.5 154.66h1.4v1.4h-1.4zM355 825.5h1.4v1.4h-1.4zM1587.53 182.36h1.4v1.4h-1.4zM308.97 1070.44h1.4v1.4h-1.4zM829.54 764.49h1.4v1.4h-1.4zM580.66 918.27h1.4v1.4h-1.4zM255.7 626.4h1.4v1.4h-1.4zM368.51 1021.29h1.4v1.4h-1.4zM28.59 1124.12h1.4v1.4h-1.4zM538.54 570.25h1.4v1.4h-1.4zM1417.7 437.18h1.4v1.4h-1.4zM245.74 624.19h1.4v1.4h-1.4zM455.28 27.22h1.4v1.4h-1.4zM516.99 320.63h1.4v1.4h-1.4zM1140.78 857.38h1.4v1.4h-1.4zM568.81 86.72h1.4v1.4h-1.4zM1074.69 771.66h1.4v1.4h-1.4zM1413.64 575.62h1.4v1.4h-1.4zM103.9 207.99h1.4v1.4h-1.4zM141.01 747.1h1.4v1.4h-1.4zM1244.72 259.39h1.4v1.4h-1.4zM1675.27 432.64h1.4v1.4h-1.4zM893.15 691.06h1.4v1.4h-1.4zM1673.58 660.06h1.4v1.4h-1.4zM1159.65 1140.75h1.4v1.4h-1.4zM204.95 742.54h1.4v1.4h-1.4zM1674.43 584.29h1.4v1.4h-1.4zM869.2 1090.51h1.4v1.4h-1.4zM843.02 556.87h1.4v1.4h-1.4zM688.24 334.82h1.4v1.4h-1.4zM741.29 745.5h1.4v1.4h-1.4zM645.46 988.65h1.4v1.4h-1.4zM1574.58 232.66h1.4v1.4h-1.4zM1100.54 33.19h1.4v1.4h-1.4zM1546.66 593.95h1.4v1.4h-1.4zM1339.15 1088.16h1.4v1.4h-1.4zM949.75 82.92h1.4v1.4h-1.4zM771.78 372.07h1.4v1.4h-1.4zM254.04 1177.76h1.4v1.4h-1.4zM874.28 384.23h1.4v1.4h-1.4zM754.16 894.99h1.4v1.4h-1.4zM259.9 865.73h1.4v1.4h-1.4zM427.17 750.26h1.4v1.4h-1.4zM66.04 761.35h1.4v1.4h-1.4zM686.38 1056.75h1.4v1.4h-1.4zM1307.72 571.87h1.4v1.4h-1.4zM1005.78 258.06h1.4v1.4h-1.4zM562.46 961.13h1.4v1.4h-1.4zM790.51 228.66h1.4v1.4h-1.4zM1117.82 422.52h1.4v1.4h-1.4zM1325.33 1064.42h1.4v1.4h-1.4zM181.89 410.04h1.4v1.4h-1.4zM5.54 822.28h1.4v1.4h-1.4zM1280.46 1163.16h1.4v1.4h-1.4zM90.22 452.55h1.4v1.4h-1.4zM721.95 1184.23h1.4v1.4h-1.4zM154.97 1144.79h1.4v1.4h-1.4zM1438.37 420.86h1.4v1.4h-1.4zM808.75 614.65h1.4v1.4h-1.4zM1321.04 1067.25h1.4v1.4h-1.4zM1189.77 163.63h1.4v1.4h-1.4zM1285.13 707.72h1.4v1.4h-1.4zM361.41 636.62h1.4v1.4h-1.4zM679.7 604.5h1.4v1.4h-1.4zM1053.13 358.3h1.4v1.4h-1.4zM486.32 1021.27h1.4v1.4h-1.4zM1209.88 1114.38h1.4v1.4h-1.4zM1564.28 24.07h1.4v1.4h-1.4zM329.96 1074.98h1.4v1.4h-1.4zM1771.24 552.79h1.4v1.4h-1.4zM421.35 294.47h1.4v1.4h-1.4zM467.06 23.45h1.4v1.4h-1.4zM840.12 410.35h1.4v1.4h-1.4zM602.02 203.37h1.4v1.4h-1.4zM697.05 655.69h1.4v1.4h-1.4zM996.1 1002.55h1.4v1.4h-1.4zM884.18 963.09h1.4v1.4h-1.4zM1463.69 938.6h1.4v1.4h-1.4zM1598.12 37.41h1.4v1.4h-1.4zM1664.4 1072.35h1.4v1.4h-1.4zM396.8 1183.4h1.4v1.4h-1.4zM988.58 689.21h1.4v1.4h-1.4zM1748.2 427.97h1.4v1.4h-1.4zM240.42 1079.77h1.4v1.4h-1.4zM138.55 833.73h1.4v1.4h-1.4zM201.52 719.61h1.4v1.4h-1.4zM1381.55 1005.64h1.4v1.4h-1.4zM1548.39 772.92h1.4v1.4h-1.4zM661.58 395.95h1.4v1.4h-1.4zM1068.13 445.79h1.4v1.4h-1.4zM1306.32 529.63h1.4v1.4h-1.4zM1669.08 631.53h1.4v1.4h-1.4zM79.02 1033.73h1.4v1.4h-1.4zM333.62 92.47h1.4v1.4h-1.4zM307.25 1083.19h1.4v1.4h-1.4zM1652.67 462.43h1.4v1.4h-1.4zM1227.54 1008.54h1.4v1.4h-1.4zM826.12 854.94h1.4v1.4h-1.4zM151.31 940.56h1.4v1.4h-1.4zM618.79 988.12h1.4v1.4h-1.4zM682.61 767.5h1.4v1.4h-1.4zM867.23 594.55h1.4v1.4h-1.4zM406.32 1118.87h1.4v1.4h-1.4zM1351.31 576.45h1.4v1.4h-1.4zM1188.32 691.88h1.4v1.4h-1.4zM661.67 224.94h1.4v1.4h-1.4zM956.09 322.35h1.4v1.4h-1.4zM1309.39 100.47h1.4v1.4h-1.4zM342.93 1163.58h1.4v1.4h-1.4zM1541.89 1166.57h1.4v1.4h-1.4zM1462.48 578.62h1.4v1.4h-1.4zM45.9 744.96h1.4v1.4h-1.4zM1460.6 1091.28h1.4v1.4h-1.4zM510.57 387.26h1.4v1.4h-1.4zM1639.31 777.87h1.4v1.4h-1.4zM1176.86 761.51h1.4v1.4h-1.4zM1072.81 59.16h1.4v1.4h-1.4zM1176.79 1097.93h1.4v1.4h-1.4zM779.96 754.46h1.4v1.4h-1.4zM1542.31 1082.31h1.4v1.4h-1.4zM1256.77 938.6h1.4v1.4h-1.4zM1599.11 286.58h1.4v1.4h-1.4zM1470.67 1198.97h1.4v1.4h-1.4zM925.47 375.97h1.4v1.4h-1.4zM1516.2 113.85h1.4v1.4h-1.4zM939.55 942.18h1.4v1.4h-1.4zM1761.69 310.75h1.4v1.4h-1.4zM440.19 137.79h1.4v1.4h-1.4zM1537.68 814.43h1.4v1.4h-1.4zM1346.37 452.29h1.4v1.4h-1.4zM1258.76 387.67h1.4v1.4h-1.4zM1064.81 484.86h1.4v1.4h-1.4zM1479.19 602.46h1.4v1.4h-1.4zM1723.35 391.65h1.4v1.4h-1.4zM656.65 360.72h1.4v1.4h-1.4zM294.94 1133.74h1.4v1.4h-1.4zM1634.04 517.11h1.4v1.4h-1.4zM976.33 270.2h1.4v1.4h-1.4zM798.99 434.1h1.4v1.4h-1.4zM1740 947.02h1.4v1.4h-1.4zM1496.84 343.38h1.4v1.4h-1.4zM678.21 674.79h1.4v1.4h-1.4zM1674.01 670.01h1.4v1.4h-1.4zM1773.95 873.11h1.4v1.4h-1.4zM1253.2 509.95h1.4v1.4h-1.4zM567.78 577.43h1.4v1.4h-1.4zM729.65 1105.92h1.4v1.4h-1.4zM547.9 984.06h1.4v1.4h-1.4zM929.06 1011.55h1.4v1.4h-1.4zM1057.28 125.47h1.4v1.4h-1.4zM669.61 387.88h1.4v1.4h-1.4zM929.21 343.5h1.4v1.4h-1.4zM1794.68 365.34h1.4v1.4h-1.4zM1579.38 72.66h1.4v1.4h-1.4zM1180.11 1166.53h1.4v1.4h-1.4zM278.89 86.2h1.4v1.4h-1.4zM599.67 255.2h1.4v1.4h-1.4zM551.62 738.53h1.4v1.4h-1.4zM1325.03 174.96h1.4v1.4h-1.4zM836.28 666.22h1.4v1.4h-1.4zM1727.58 995.11h1.4v1.4h-1.4zM684.94 485.15h1.4v1.4h-1.4zM1741.64 112.56h1.4v1.4h-1.4zM855.91 1020.25h1.4v1.4h-1.4zM763.4 21.19h1.4v1.4h-1.4zM1402.37 239.03h1.4v1.4h-1.4zM1508.02 907.01h1.4v1.4h-1.4zM744.12 28.84h1.4v1.4h-1.4zM1619.86 4.63h1.4v1.4h-1.4zM1483.86 197.64h1.4v1.4h-1.4zM174.16 230.94h1.4v1.4h-1.4zM837.98 519.49h1.4v1.4h-1.4zM1535.13 1031.82h1.4v1.4h-1.4zM827.48 406.67h1.4v1.4h-1.4zM1367.94 861.37h1.4v1.4h-1.4zM419.87 474.79h1.4v1.4h-1.4zM1498.81 848.23h1.4v1.4h-1.4zM334.22 782.67h1.4v1.4h-1.4zM1625.95 1065.06h1.4v1.4h-1.4zM164.75 388.24h1.4v1.4h-1.4zM1029.79 426.09h1.4v1.4h-1.4zM1463.77 699.51h1.4v1.4h-1.4zM317.95 947.66h1.4v1.4h-1.4zM1283.25 1168.23h1.4v1.4h-1.4zM53.27 427.29h1.4v1.4h-1.4zM1066.89 943.33h1.4v1.4h-1.4zM134.77 446.04h1.4v1.4h-1.4zM395.42 143.03h1.4v1.4h-1.4zM580.43 746.36h1.4v1.4h-1.4zM697.02 298.69h1.4v1.4h-1.4zM733.41 12.41h1.4v1.4h-1.4zM1482.75 865.89h1.4v1.4h-1.4zM931.7 570.21h1.4v1.4h-1.4zM366.06 1124.28h1.4v1.4h-1.4zM798.51 994.99h1.4v1.4h-1.4zM1162.6 600.56h1.4v1.4h-1.4zM647.23 404.65h1.4v1.4h-1.4zM859.99 1146.13h1.4v1.4h-1.4zM904.35 144.81h1.4v1.4h-1.4zM365.4 960.52h1.4v1.4h-1.4zM1477.51 996.66h1.4v1.4h-1.4zM153.1 595.23h1.4v1.4h-1.4zM1289.87 939.25h1.4v1.4h-1.4zM1702.86 1135.69h1.4v1.4h-1.4zM423.61 414.92h1.4v1.4h-1.4zM524.98 978.85h1.4v1.4h-1.4zM1185.67 1014.71h1.4v1.4h-1.4zM1577.28 445.87h1.4v1.4h-1.4zM1356.37 927.51h1.4v1.4h-1.4zM993.25 256.2h1.4v1.4h-1.4zM421.42 1074.65h1.4v1.4h-1.4zM659.9 797.84h1.4v1.4h-1.4zM810.88 458.29h1.4v1.4h-1.4zM1281.57 311.8h1.4v1.4h-1.4zM66.62 68.93h1.4v1.4h-1.4zM650.96 144.04h1.4v1.4h-1.4zM806.53 906.96h1.4v1.4h-1.4zM1417.55 1136.54h1.4v1.4h-1.4zM256.15 903.37h1.4v1.4h-1.4zM771.11 1198.28h1.4v1.4h-1.4zM1689.84 457.25h1.4v1.4h-1.4zM237.55 50.42h1.4v1.4h-1.4zM345.08 159.09h1.4v1.4h-1.4zM289.77 728.66h1.4v1.4h-1.4zM779.42 712.02h1.4v1.4h-1.4zM750.63 926.05h1.4v1.4h-1.4zM149.54 399.75h1.4v1.4h-1.4zM1498.14 526.1h1.4v1.4h-1.4zM794.12 1057.28h1.4v1.4h-1.4zM225.53 995.02h1.4v1.4h-1.4zM251.62 546.8h1.4v1.4h-1.4zM620.35 445.3h1.4v1.4h-1.4zM1475.69 974.98h1.4v1.4h-1.4zM624.62 283.64h1.4v1.4h-1.4zM1010.31 558.02h1.4v1.4h-1.4zM875.6 767.45h1.4v1.4h-1.4zM1467.27 285.85h1.4v1.4h-1.4zM935.99 687.37h1.4v1.4h-1.4zM306.38 907.01h1.4v1.4h-1.4zM804.26 670.62h1.4v1.4h-1.4zM1042.28 1177.52h1.4v1.4h-1.4zM373.87 1081.76h1.4v1.4h-1.4zM1674.4 319.11h1.4v1.4h-1.4zM687.42 764.25h1.4v1.4h-1.4zM41.79 298.01h1.4v1.4h-1.4zM1531.39 1112.68h1.4v1.4h-1.4zM1777.83 9.52h1.4v1.4h-1.4zM665.96 311.06h1.4v1.4h-1.4zM1141.35 67.65h1.4v1.4h-1.4zM779.94 581.92h1.4v1.4h-1.4zM440.27 1105.14h1.4v1.4h-1.4zM680.37 938.98h1.4v1.4h-1.4zM306.4 1122.15h1.4v1.4h-1.4zM1286.03 1158.68h1.4v1.4h-1.4zM605.28 735.77h1.4v1.4h-1.4zM224.54 719.44h1.4v1.4h-1.4zM653.68 705.59h1.4v1.4h-1.4zM588.17 1082.96h1.4v1.4h-1.4zM1464.25 2.99h1.4v1.4h-1.4zM1491.62 751.64h1.4v1.4h-1.4zM647.48 837.63h1.4v1.4h-1.4zM1296.05 653.93h1.4v1.4h-1.4zM1540.91 990.09h1.4v1.4h-1.4zM40.67 914.24h1.4v1.4h-1.4zM1230.87 1094.49h1.4v1.4h-1.4zM472.36 617.04h1.4v1.4h-1.4zM262.46 778.07h1.4v1.4h-1.4zM1059.48 714.19h1.4v1.4h-1.4zM1384.13 1063.59h1.4v1.4h-1.4zM795.29 916.01h1.4v1.4h-1.4zM995.06 86.76h1.4v1.4h-1.4zM320.71 704.28h1.4v1.4h-1.4zM1785.13 203.14h1.4v1.4h-1.4zM163.15 396.99h1.4v1.4h-1.4zM423.33 822.64h1.4v1.4h-1.4zM1454.83 39.68h1.4v1.4h-1.4zM1308.53 77.99h1.4v1.4h-1.4zM603.14 749.09h1.4v1.4h-1.4zM1013.56 1018.56h1.4v1.4h-1.4zM1490.97 667.61h1.4v1.4h-1.4zM886.96 946.33h1.4v1.4h-1.4zM177.86 881.22h1.4v1.4h-1.4zM317.83 815.24h1.4v1.4h-1.4zM94.14 1175.58h1.4v1.4h-1.4zM1726.97 83.76h1.4v1.4h-1.4zM352.93 510.32h1.4v1.4h-1.4zM901.61 663.26h1.4v1.4h-1.4zM962.01 634.75h1.4v1.4h-1.4zM294.31 90.5h1.4v1.4h-1.4zM968.76 583.63h1.4v1.4h-1.4zM453.46 40.53h1.4v1.4h-1.4zM1186.16 471.55h1.4v1.4h-1.4zM735.92 585.02h1.4v1.4h-1.4zM1257.02 64.38h1.4v1.4h-1.4zM1128.24 712.68h1.4v1.4h-1.4zM1222.97 198.63h1.4v1.4h-1.4zM1646.34 312.55h1.4v1.4h-1.4zM836.22 9.51h1.4v1.4h-1.4zM323.88 152.53h1.4v1.4h-1.4zM486.08 786.26h1.4v1.4h-1.4zM443.65 598.81h1.4v1.4h-1.4zM1548.32 58.83h1.4v1.4h-1.4zM42.05 761.87h1.4v1.4h-1.4zM1060.7 1136.84h1.4v1.4h-1.4zM689.33 541.21h1.4v1.4h-1.4zM229.29 1084.02h1.4v1.4h-1.4zM1087.65 797.37h1.4v1.4h-1.4zM1585.64 549.52h1.4v1.4h-1.4zM926.72 0.83h1.4v1.4h-1.4zM1248.57 255.7h1.4v1.4h-1.4zM644.54 257.83h1.4v1.4h-1.4zM317.29 700.64h1.4v1.4h-1.4zM13.77 640.49h1.4v1.4h-1.4zM963.6 444.09h1.4v1.4h-1.4zM1577.79 217.3h1.4v1.4h-1.4zM733.34 480.44h1.4v1.4h-1.4zM1620.14 718.04h1.4v1.4h-1.4zM1412.96 155.35h1.4v1.4h-1.4zM1338.01 391.87h1.4v1.4h-1.4zM731.6 175.9h1.4v1.4h-1.4zM1109.29 878.46h1.4v1.4h-1.4zM1020.51 874.92h1.4v1.4h-1.4zM1731.69 250.48h1.4v1.4h-1.4zM358.29 490.6h1.4v1.4h-1.4zM385.31 921.63h1.4v1.4h-1.4zM366.64 469.43h1.4v1.4h-1.4zM1271.92 294.55h1.4v1.4h-1.4zM767.94 457.71h1.4v1.4h-1.4zM1159.26 353.74h1.4v1.4h-1.4zM801.61 926.27h1.4v1.4h-1.4zM356.24 384.6h1.4v1.4h-1.4zM1270.24 626.06h1.4v1.4h-1.4zM971.15 1062.66h1.4v1.4h-1.4zM911.14 666.7h1.4v1.4h-1.4zM1214.9 900.85h1.4v1.4h-1.4zM186.24 1118.2h1.4v1.4h-1.4zM683.74 283.07h1.4v1.4h-1.4zM1170.12 810.85h1.4v1.4h-1.4zM1164.51 337.85h1.4v1.4h-1.4zM1526.61 378.41h1.4v1.4h-1.4zM1607.57 340.25h1.4v1.4h-1.4zM921.67 1025.06h1.4v1.4h-1.4zM1481.94 232.67h1.4v1.4h-1.4zM1327.7 89.39h1.4v1.4h-1.4z" fill="#FFFFFF" opacity="0.05"/><rect width="1800" height="1200" fill="url(#vig)" opacity="0.44"/></svg>